<svg xmlns="http://www.w3.org/2000/svg" width="240.939" height="240.939" viewBox="0 0 180.704 180.704"><path d="M90.352 1c49.347 0 89.351 40.005 89.351 89.352s-40.004 89.351-89.351 89.351c-49.348 0-89.351-40.004-89.351-89.351S41.005 1.001 90.352 1.001" fill="#fff" fill-rule="evenodd"/><path d="M90.352 176.344c47.492 0 85.992-38.5 85.992-85.992 0-47.492-38.5-85.992-85.992-85.992C42.86 4.36 4.36 42.86 4.36 90.352c0 47.492 38.5 85.992 85.992 85.992" fill="#f7941d" fill-rule="evenodd"/><path d="M173.185 113.512H7.519c10.112 36.242 43.366 62.832 82.833 62.832s72.72-26.59 82.833-62.832" fill="#315172" fill-rule="evenodd"/><path d="M63.422 34.016c6.143 1.27 10.856 3.795 14.14 7.572 3.283 3.778 4.924 8.35 4.924 13.716 0 4.378-1.183 8.438-3.548 12.18-2.365 3.742-5.966 6.76-10.803 9.056-4.837 2.294-10.82 3.442-17.952 3.442a64.154 64.154 0 0 1-15.516-1.907c-5.12-1.27-9.55-3.071-13.292-5.401L29 56.893c2.895 1.977 6.16 3.495 9.797 4.554 3.637 1.06 7.22 1.589 10.75 1.589 3.601 0 6.461-.671 8.58-2.013 2.118-1.341 3.177-3.248 3.177-5.719 0-4.801-3.778-7.202-11.333-7.202h-8.79V34.863L54.42 20.565H25.186V4.36H78.78v13.133z" fill="#315172"/><path d="M85.863 139.572h-1.788v-17.259a5.17 5.17 0 0 0-5.163-5.163H61.921c-6.52 0-11.828 5.306-11.828 11.827v8.94h-1.788v-8.94c0-7.507 6.11-13.616 13.616-13.616h16.991c3.832 0 6.95 3.12 6.95 6.952z" fill="#304874"/><path d="M154.096 32.764c.416 2.022.668 4.292.811 6.62a88.743 88.743 0 0 1 .149 4.768c.002.387 0 .771-.001 1.151-.042 6.775-.706 12.636-.706 12.636l-6.895-1.238c-.506-3.818-1.23-7.245-1.756-11.294a78.88 78.88 0 0 1-.655-10.91c.01-.8.239-1.585.584-2.317 1.502-3.16 5.892-3.634 7.89-.761.29.42.48.875.579 1.345" fill="#f7a28f"/><path d="M146.07 49.736s2.952-.524 5.717.606c-.263-6.258-8.057-15.22-8.057-15.22s.363 7.872 2.34 14.614" fill="#ccd9ef"/><path d="m126.721 67.715.243.379c.16.25.42.421.715.47l.214.097c.3.156.651.183.972.075l.121-.04.303.06c.309.062.628-.022.865-.228a.85.85 0 0 0 .818-.426l.125-.387c-1.477-.294-4.376 0-4.376 0M148.07 52.567c-5.022 1.808-9.431 6.163-19.084 10.84l1.797 2.641s19.55-6.676 23.79-9.091l.36-.235c1.37-1.008-.883-6.31-6.864-4.155" fill="#f7a28f"/><path d="M172.317 144.705c-.853 1.415-2.878 2.496-5.07 3.08a2.455 2.455 0 0 0-1.811 2.658h14.21a9.49 9.49 0 0 0-1.016-5.429l-.16-.309zM152.613 145.184c-.909 1.152-3.056 2.353-5.088 3.004a2.368 2.368 0 0 0-1.641 2.255h14.485a8.953 8.953 0 0 0-.876-5.001l-.128-.258z" fill="#41376f"/><path d="M167.588 81.005c-.136 1.076-.59 2.534-1.249 4.213-1.309 3.333-3.442 7.543-5.543 11.416-3.173 5.845-6.274 10.93-6.37 11.087l-12.664-3s2.173-17.293 9.204-35.222l.057-.145c.134-.338.264-.675.403-1.011.52-1.295 1.068-2.595 1.643-3.886h6.169s2.086 2.285 4.176 5.382a40.579 40.579 0 0 1 1.596 2.551c.263.46.52.932.757 1.406 1.246 2.46 2.09 5.032 1.82 7.209" fill="#9c8fc0"/><path d="M177.33 71.331c-.01 3.645-.803 9.602-.803 9.602-.662 12.451-.92 28.66-.92 28.66h-12.093s-1.3-5.135-2.718-12.959c-1.219-6.734-2.523-15.461-3.154-24.616l-.02-.338a165.322 165.322 0 0 1-.33-7.223h17.93s.245.38.57 1.007c.35.67.788 1.624 1.106 2.694.227.764.393 1.587.422 2.411.008.24.01.494.01.762" fill="#9c8fc0"/><path d="M160.967 98.417c-.108-.567-.216-1.153-.323-1.756-1.566-8.64-2.626-16.929-3.155-24.634l-.023-.307.31-.05.023.337c.53 7.692 1.59 15.969 3.15 24.6.11.6.218 1.186.324 1.753z" fill="#8b71a7"/><path d="M179.006 124.527c-.016.538-.04 1.09-.065 1.658-.032.706-.068 1.44-.108 2.202-.052 1.017-.11 2.083-.165 3.207-.015.288-.028.578-.044.874l-.068 1.634-.043 1.098a167.586 167.586 0 0 0-.11 8.43s.836.974.368 1.668c-.767 1.14-5.853.599-6.683-.114-.832-.715-.142-1.96-.142-1.96l-.382-1.519-.765-3.052-.744-2.967-.321-1.285-.416-1.662-.13-.52-.758-3.022-.687-2.729-.423-1.695-3.806-15.18h12.093s1.76 2.219 2.795 6.29c.63 2.49.713 5.26.604 8.644M159.363 145.184c-.9 1.362-6.133 1.325-6.909.185-.513-.757-.084-1.02-.154-1.461a84.073 84.073 0 0 0-.768-4.158c-.202-.962-.42-1.94-.655-2.924a143.93 143.93 0 0 0-.872-3.475c-.046-.184-.096-.368-.145-.552a183.338 183.338 0 0 0-1.407-4.987 261.89 261.89 0 0 0-.563-1.865c-3.144-10.253-6.592-18.955-6.592-18.955l.464-2.27 12.663 3.004s1.962 2.39 2.587 5.163c.671 2.987.968 7.486 1.182 12.403l.076 1.83c.035.87.068 1.752.1 2.634.03.775.057 1.554.089 2.33.007.222.017.444.025.666.015.386.032.773.049 1.158.032.785.068 1.563.105 2.334.047.994.104 1.973.164 2.929.103 1.61.228 3.152.384 4.584.054.49.756.555.177 1.427" fill="#9c8fc0"/><path d="M176.898 68.158c-1.486.45-2.944.78-4.393 1.031-2.783.481-5.526.66-8.064.66-6.67 0-11.95-1.24-12.955-1.489l-.173-.046s-.521-.375-.66-.942c-.113-.464.026-1.053.906-1.672.072-.315.15-.619.226-.915.062-.24.126-.475.186-.708.096-.36.189-.718.275-1.078l.059-.255c.206-.89.363-1.816.402-2.887a14.963 14.963 0 0 0-.046-1.818c-.039-.457-.096-.94-.179-1.457-.274-1.725-.808-3.82-1.727-6.492l-.089-.252c-.765-2.187-2.365-4.462-4.16-7.045-.169-.24-.336-.48-.502-.722a12.037 12.037 0 0 1-1.333-2.54c-.585-1.523-.862-3.093-.953-4.573a21.654 21.654 0 0 1 .254-4.739c.237-1.454.533-2.38.533-2.38l3.943-2.103 4.136-2.21.472-.25.192.021c.3.043.618.086.949.135.41.058.84.125 1.282.196 3.63.601 8.182 1.694 10.263 3.696l.128.125c.547.567 1.09 1.347 1.623 2.3 3.182 5.671 6.034 17.43 7.741 26.106l.343 1.775c.223 1.19.421 2.303.594 3.308l.26 1.592.03.2c.236 1.51.38 2.635.418 3.221.908 1.585.192 2.11.019 2.207" fill="#f5b653"/><path d="M152.482 56.582c-.2-1.267-.543-2.736-1.075-4.487.532 1.75.874 3.22 1.075 4.487z" fill="#f49075"/><path d="M155.479 23.628zm-1.282-.196a91.68 91.68 0 0 0-.662-.095c.214.03.436.06.662.095" fill="#e7c9c5"/><path d="M152.482 56.582c-.2-1.267-.543-2.736-1.075-4.487a56.573 56.573 0 0 0-.652-2.005c7.656-7.459 1.829-26.563 1.829-26.563l.664-.228.287.038a91.68 91.68 0 0 1 1.944.291c3.63.601 8.182 1.694 10.263 3.696-.03.05-.06.103-.094.157a4.025 4.025 0 0 0-.394-.225c-1.013-1.007-2.185-1.58-3.458-1.58-.295 0-.596.03-.902.093-3.48.722-5.466 5.436-4.572 10.664-.469 3.252-.837 7.273-1.339 12.012.065.363.156.69.268.984l-.005.053a99.739 99.739 0 0 1-.32 3.055l2.391 1.445c-1.2 1.106-2.462 2.252-2.61 2.319-.126.055-1.126.169-2.225.281" fill="#f29e48"/><path d="M176.46 62.73c-6.269 1.799-13.192 2.249-18.569 2.249-2.415 0-4.517-.091-6.104-.194.158-.61.319-1.195.46-1.786 5.167.296 15.325.438 23.924-2.063.106.645.206 1.244.29 1.794M175.577 57.63c-6.325 1.851-13.345 2.31-18.783 2.31-1.497 0-2.877-.034-4.087-.085.021-.558.01-1.158-.044-1.816 5.507.225 14.708.135 22.571-2.184.12.609.233 1.2.343 1.775" fill="#fedbbe"/><path d="M147.96 17.234s3.036 5.22 5.098 6.04l-8.553 4.567s-.87-3.27-3.05-6.757c1.452-3.341 6.505-3.85 6.505-3.85" fill="#f7a28f"/><path d="M177.091 66.365v-.001zm-.007-.018c0-.001-.002-.001-.002-.003 0 .002.002.002.002.003zm-.008-.017-.002-.004.002.004zm-.008-.017-.004-.006.004.006zm-.01-.02-.001-.004.001.005zm-.01-.02-.001-.002.001.002zm-.009-.02-.001-.003.001.003zm-.01-.02-.002-.004c0 .001 0 .003.003.004zm-.01-.017v-.006.006zm-.008-.02-.004-.005c.002.002.004.004.004.006zm-.01-.018zm-.01-.019-.003-.006c.001.003.001.004.004.006zm-.01-.02c0-.002 0-.004-.002-.006l.001.006zm-.011-.023v-.001.001zm-.011-.02c0-.002-.002-.004-.004-.005.002.001.004.003.004.005zm-.01-.02c-.002 0-.003-.004-.005-.007.002.003.003.006.005.007zm-.011-.019c-.002-.002-.002-.004-.003-.008.001.004.001.006.003.008zm-.01-.018c-.001-.004-.002-.007-.005-.008.002.003.004.004.005.008zm-.011-.02-.004-.009c0 .003.003.006.004.01zm-.011-.02c-.002-.003-.004-.004-.005-.008.001.004.003.005.005.008zm-.01-.021c-.003-.001-.004-.004-.006-.006l.005.006zm-1.32-8.348z" fill="#e8d0cf"/><path d="M172.72 69.15a36.367 36.367 0 0 0 4.175-.99c-.022.012-.035.016-.035.016a36.73 36.73 0 0 1-4.14.975" fill="#ab85a2"/><path d="M172.503 69.19c.462-1.749.709-3.68.803-5.674a48.824 48.824 0 0 0 3.155-.786c.236 1.51.38 2.635.418 3.221l.011.02c.002.003.003.006.005.007.001.005.005.008.006.013.001.004.003.005.005.008l.007.011c0 .003.003.006.004.01.002.003.005.006.006.01.002.002.004.005.005.009a.024.024 0 0 0 .007.01c.001.004.001.006.003.008a.075.075 0 0 1 .006.012c.002.003.003.006.005.007l.006.015c.002.001.004.003.004.005l.01.019v.001l.01.017.001.006c.003.004.007.01.008.014.001.003.001.004.004.006a.032.032 0 0 1 .006.013.01.01 0 0 1 .003.006l.006.013c.002.002.004.004.004.006l.008.013v.006a.051.051 0 0 1 .008.013c0 .001 0 .003.003.004.003.007.004.011.008.017l.001.003.008.018.001.002c.004.005.006.01.009.016l.001.005.006.013.004.006.006.013.002.004c.001.005.004.01.006.014 0 .002.002.002.002.003l.006.017h.001c.57 1.269-.04 1.706-.196 1.795a36.367 36.367 0 0 1-4.176.992l-.146.027-.068.011h-.002zm.849-7.536a53.525 53.525 0 0 0-.107-3.409c.785-.186 1.563-.39 2.332-.615.222 1.19.421 2.303.592 3.306a44.34 44.34 0 0 1-2.817.718" fill="#f2a449"/><path d="M173.306 63.516c.028-.617.044-1.238.046-1.862a44.34 44.34 0 0 0 2.817-.718v.002c.108.643.205 1.242.292 1.792a48.824 48.824 0 0 1-3.155.786" fill="#fbc3a1"/><path d="m152.706 59.882.001-.027v.002l-.001.025" fill="#e8d0cf"/><path d="M152.305 62.746c.204-.886.362-1.802.401-2.864l.001-.025v-.002a98.463 98.463 0 0 0 6.185.063 26.04 26.04 0 0 1-6.5 2.802z" fill="#f2a449"/><path d="M152.707 59.855a18.001 18.001 0 0 0 0-.008v.008" fill="#e8d0cf"/><path d="M152.707 59.847a17.372 17.372 0 0 0-.003-1.089l-.004-.119.001-.001c.02.426.02.827.006 1.209" fill="#f2a449"/><path d="M168.669 32.143a26.823 26.823 0 0 0-1.176-2.394c0-.002 0-.002-.002-.002h.002c.398.71.79 1.513 1.176 2.396" fill="#e8d0cf"/><path d="M156.688 58.122c-1.096 0-2.126-.02-3.069-.048.531-.336 1.007-.712 1.315-1.352.475-.995 1.889-1.525 2.818-2.477l3.399 2.056s.609-1.726 1.434-4.304a85.997 85.997 0 0 0 .22-.688c.798-.25 1.318-.486 1.318-.486s.987-2.441 1.973-5.77c2.702-1.475 3.457-5.999 2.456-10.826a20.392 20.392 0 0 0-.569-2.152c-.103-.859-.287-1.653-.57-2.348l.078.02a26.823 26.823 0 0 1 1.178 2.396c2.7 6.17 5.071 16.122 6.565 23.712l.011.059-.011-.059a40.9 40.9 0 0 1-2.128.567c-.617-6.815-2.189-12.696-2.189-12.696s-.538 1.677-1.57 4.119a25.844 25.844 0 0 1-7.689 10.145 92.102 92.102 0 0 1-4.97.132" fill="#f2a449"/><path d="M156.794 59.94c-1.497 0-2.877-.034-4.087-.085v-.008c.015-.382.013-.783-.006-1.209.31-.201.621-.377.918-.564.943.028 1.973.048 3.07.048 1.543 0 3.218-.037 4.97-.132-.879.7-1.804 1.345-2.767 1.928a91.63 91.63 0 0 1-2.098.023zm16.451-1.695a60.881 60.881 0 0 0-.139-1.823 40.9 40.9 0 0 0 2.128-.567l.011.059.332 1.716c-.769.225-1.547.43-2.332.615" fill="#fbc3a1"/><path d="M164.123 50.823s-8.064 3.625-9.14-2.378c3.945-5.443 6.764-3.653 6.764-3.653z" fill="#8b71a7"/><path d="M168.552 34.227c1.128 5.436.03 10.486-3.57 11.233-3.597.746-7.428-3.057-8.558-8.494-1.129-5.436.871-10.45 4.47-11.197 3.599-.746 6.528 3.02 7.658 8.458" fill="#a9bee2"/><path d="M167.31 30.997c-.097 2.062-.418 4.324-.858 6.615-.073.38-.15.765-.23 1.146a93.755 93.755 0 0 1-.81 3.51c-.094.376-.193.746-.289 1.114a148.975 148.975 0 0 1-1.45 5.13c-.381 1.26-.752 2.443-1.088 3.485-.825 2.578-1.434 4.304-1.434 4.304l-6.225-3.764c.126-1.036.23-2.05.32-3.055.081-.877.154-1.747.229-2.625.153-1.835.317-3.697.56-5.695.044-.37.096-.746.146-1.127.159-1.144.344-2.342.58-3.6.065-.368.138-.742.213-1.123.307-1.52.678-3.137 1.14-4.882.205-.776.622-1.479 1.14-2.1 2.242-2.687 6.61-2.058 7.83 1.222.179.479.249.965.227 1.445" fill="#f8bda8"/><path d="m72.743 142.372-1.559-1.04 47.547-71.344a9.234 9.234 0 0 1 7.7-4.122h.48v1.873h-.48a7.364 7.364 0 0 0-6.142 3.287z" fill="#b0bddd"/><path d="M138.404 67.715h-11.973a.913.913 0 0 1 0-1.825h11.973a.913.913 0 0 1 0 1.825" fill="#f5b653"/><path d="m93.455 142.373-1.557-1.04 47.636-71.483c.283-.426.309-.944.068-1.395a1.33 1.33 0 0 0-.932-.693.926.926 0 0 1-.746-.915.935.935 0 0 1 1.102-.923 3.189 3.189 0 0 1 2.227 1.649 3.2 3.2 0 0 1-.16 3.316z" fill="#b0bddd"/><path d="M65.678 135.797a9.355 9.355 0 0 0-2.434-.934v-.234h-2.472a9.318 9.318 0 0 0-7.725 4.788 9.292 9.292 0 0 0 7.94 13.797l2.257.003v-.238a9.291 9.291 0 0 0 2.434-17.181" fill="#41376f"/><path d="M71.768 148.428a9.293 9.293 0 0 1-16.253-9.01 9.29 9.29 0 0 1 12.632-3.62c4.488 2.488 6.108 8.142 3.621 12.63" fill="#6c648f"/><path d="M70.109 147.509a7.397 7.397 0 0 1-10.053 2.88 7.396 7.396 0 0 1-2.881-10.051 7.393 7.393 0 0 1 10.052-2.881 7.394 7.394 0 0 1 2.882 10.052" fill="#41376f"/><path d="m64.048 142.114.698-4.083a.543.543 0 0 1 .793-.384l2.361 1.291c.325.18.38.625.106.875l-3.06 2.793a.541.541 0 0 1-.898-.492M61.834 143.517l-4.084-.7a.54.54 0 0 1-.383-.792l1.291-2.36a.541.541 0 0 1 .875-.107l2.79 3.062a.54.54 0 0 1-.49.897M63.236 145.73l-.698 4.084a.541.541 0 0 1-.794.384l-2.361-1.292a.542.542 0 0 1-.105-.875l3.06-2.792a.541.541 0 0 1 .898.491M65.45 144.328l4.084.699a.543.543 0 0 1 .384.794l-1.294 2.36a.54.54 0 0 1-.873.106l-2.792-3.06a.542.542 0 0 1 .491-.9" fill="#6c648f"/><path d="M93.89 150.827H33.692a3.537 3.537 0 0 1-3.539-3.537v-2.92H93.89z" fill="#6c648f"/><path d="M93.347 137.284v7.355l-63.193-.27.656-.654a21.96 21.96 0 0 1 15.527-6.43z" fill="#f5b653"/><path d="M93.347 137.284v7.278l-45.718-.193.654-.654a21.974 21.974 0 0 1 15.53-6.43z" fill="#f68c39"/><path d="M65.528 133.47H50.246a.85.85 0 0 0-.85.85v2.962H66.38v-2.962a.85.85 0 0 0-.851-.85" fill="#fec752"/><path d="M85.952 133.47H62.824a.851.851 0 0 0-.85.85v2.962h24.827v-2.962a.85.85 0 0 0-.85-.85" fill="#f5b653"/><path d="M84.381 128.018v5.453h-33.02v-3.648a8.477 8.477 0 0 1 8.475-8.478H77.71a6.673 6.673 0 0 1 6.671 6.673" fill="#f5b653"/><path d="M84.381 128.018v5.453H61.785v-3.648a8.477 8.477 0 0 1 8.476-8.478h7.449a6.673 6.673 0 0 1 6.671 6.673" fill="#f68c39"/><path d="M77.153 132.749h-9.704a.839.839 0 0 1-.839-.838v-4.16c0-.465.376-.84.839-.84h9.704c.465 0 .84.375.84.84v4.16a.838.838 0 0 1-.84.838" fill="#b06627"/><path d="M77.456 132.749H67.75a.84.84 0 0 1-.84-.838v-4.16a.84.84 0 0 1 .84-.84h9.705a.84.84 0 0 1 .84.84v4.16a.839.839 0 0 1-.84.838" fill="#fec752"/><path d="m67.751 132.164-.255-.253v-4.16l.255-.256h9.705l.255.255v4.16l-.255.254z" fill="#41376f"/><path d="M67.872 131.834h1.016v-4.15h-1.016z" fill="#6c648f"/><path d="M67.872 131.834h.31v-4.15h-.31z" fill="#281d4e"/><path d="M69.832 131.834h1.02v-4.15h-1.02z" fill="#6c648f"/><path d="M69.832 131.834h.31v-4.15h-.31z" fill="#281d4e"/><path d="M71.792 131.834h1.019v-4.15h-1.019z" fill="#6c648f"/><path d="M71.792 131.834h.313v-4.15h-.313z" fill="#281d4e"/><path d="M73.754 131.834h1.017v-4.15h-1.017z" fill="#6c648f"/><path d="M73.754 131.834h.31v-4.15h-.31z" fill="#281d4e"/><path d="M75.715 131.834h1.018v-4.15h-1.019z" fill="#6c648f"/><path d="M75.715 131.834h.31v-4.15h-.31z" fill="#281d4e"/><path d="m135.79 16.798.191.717s-.016.13-.034.355c-.045.582-.083 1.806.188 3.125.585 2.675 2.792 5.72 3.49 6.83a.616.616 0 0 0 .571.287c.694-.059 2.155-.193 2.614-.343.868-.261 4.907-3.532 5.492-5.066.066-.901.715-4.082.715-4.082s.364-.896.931-1.686c.156-.219-.19-1.265.053-1.805.893-1.972-1.922-7.83-3.718-8.242-1.305-.3-2.978-.617-4.648-.745-3.75-.29-6.977 2.712-6.866 6.469.01.307.041.553.082.706.425 1.557.75 2.767.94 3.48" fill="#f8bda8"/><path d="M147.176 17.331c-.483 1.28-.18 2.58.678 2.903.855.323 1.942-.453 2.426-1.732.481-1.28.179-2.58-.679-2.903-.855-.323-1.942.451-2.425 1.732" fill="#f8bda8"/><path d="M153.058 23.275c-1.787 2.11-7.318 5.792-9.084 6.944.238-1.456.53-2.38.53-2.38l3.945-2.103z" fill="#ccd9ef"/><path d="m132.692 67.715.242.379c.161.25.421.421.716.47l.213.097c.302.156.652.183.974.075l.12-.04.303.06c.309.062.627-.022.864-.228a.85.85 0 0 0 .819-.426l.126-.387c-1.48-.294-4.376 0-4.376 0" fill="#f7a28f"/><path d="M154.042 52.567c-5.022 1.808-9.43 6.163-19.085 10.84l1.799 2.641s19.545-6.676 23.787-9.091l.362-.235c1.37-1.008-.883-6.309-6.863-4.155" fill="#f8bda8"/><path d="M134.957 63.406s-.486.171-1.057.485a2.906 2.906 0 0 0-1.439 3.128c.165.802.834 1.354 1.615 1.354h1.575c.631 0 1.129-.577.992-1.192-.089-.4-.033-.854.37-1.291.461-1.663-2.056-2.484-2.056-2.484" fill="#f8bda8"/><path d="M164.123 50.823a6.514 6.514 0 0 0-.952-.678c-1.667-.988-3.828-1.408-5.51-1.584a21.819 21.819 0 0 0-2.323-.12c-.226 0-.355.004-.355.004 1.48-13.996 1.804-21.721 6.971-21.884.77-.027 1.645.117 2.65.432 8.101 2.563-.48 23.83-.48 23.83" fill="#ccd9ef"/><path d="M128.986 63.406s-.485.171-1.059.485a2.908 2.908 0 0 0-1.437 3.128c.165.802.834 1.354 1.615 1.354h1.577c.629 0 1.127-.577.99-1.192-.088-.4-.033-.854.37-1.291.46-1.663-2.056-2.484-2.056-2.484" fill="#f7a28f"/><path d="M150.412 16.412c-1.977-.795-3.766-1.347-5.367-1.72-6.663-1.55-10.044 0-10.044 0-2.266-6.3 2.342-9.025 7.293-9.127a14.43 14.43 0 0 1 3.029.255c5.803 1.116 6.356 6.662 5.089 10.592" fill="#f5b653"/><path d="M163.171 50.145c-.202.655-.4 1.275-.586 1.852-2.355-1.433-6.212-2.288-7.339-2.515.032-.347.062-.695.092-1.041 1.193-.005 5.154.115 7.833 1.704" fill="#f7a28f"/><path d="M164.123 50.823a6.514 6.514 0 0 0-.952-.678c-1.18-.7-2.608-1.115-3.94-1.359a19.825 19.825 0 0 0-1.57-.225c7.165-5.563 5.28-17.586 4.293-22 .059-.002.118-.004.178-.004.726 0 1.543.146 2.472.436 2.594.82 3.478 3.56 3.48 6.907.005 7.098-3.96 16.923-3.96 16.923" fill="#c4d1eb"/><path d="M163.171 50.145c-1.18-.7-2.608-1.114-3.94-1.359 1.332.244 2.76.659 3.94 1.36z" fill="#e3a9a4"/><path d="m150.412 16.412-.064-.026c-.63-.253-1.24-.48-1.834-.684-1.24-.43-2.397-.76-3.469-1.01.27-4.961-1.456-7.75-2.75-9.127.106-.002.212-.004.32-.004.908 0 1.825.089 2.708.259 4.193.806 5.646 3.927 5.65 7.079a11.55 11.55 0 0 1-.561 3.513" fill="#f3a84b"/><path d="M93.065 141.707h-1.787v-24.21c0-4.191-3.41-7.603-7.604-7.603H59.842c-9.347 0-16.95 7.605-16.95 16.952v12.536h-1.79v-12.536c0-10.333 8.408-18.74 18.74-18.74h23.832c5.18 0 9.391 4.213 9.391 9.391z" fill="#b0bddd"/><path d="M49.283 145.096a3.643 3.643 0 1 1-7.286.002 3.643 3.643 0 0 1 7.286-.002" fill="#304874"/><path d="M48.42 145.096a2.78 2.78 0 1 1-5.56.002 2.78 2.78 0 0 1 5.56-.002" fill="#7891c6"/><path d="M95.382 135.797a9.34 9.34 0 0 0-2.432-.934v-.234h-2.472a9.32 9.32 0 0 0-7.726 4.788c-2.488 4.488-.865 10.144 3.621 12.632a9.26 9.26 0 0 0 4.32 1.165l2.257.003v-.238a9.268 9.268 0 0 0 6.053-4.551c2.49-4.488.867-10.142-3.62-12.63" fill="#4b4567"/><path d="M101.472 148.428a9.293 9.293 0 0 1-12.631 3.621 9.294 9.294 0 0 1-3.62-12.632 9.292 9.292 0 0 1 16.251 9.01" fill="#6c648f"/><path d="M99.813 147.509a7.395 7.395 0 1 1-12.93-7.172 7.395 7.395 0 0 1 12.93 7.172" fill="#4b4567"/><path d="m93.753 142.114.7-4.083a.542.542 0 0 1 .792-.384l2.36 1.291c.327.18.381.625.107.875l-3.062 2.793a.54.54 0 0 1-.897-.492M91.538 143.517l-4.082-.7a.542.542 0 0 1-.384-.792l1.29-2.36a.542.542 0 0 1 .875-.107l2.792 3.062a.54.54 0 0 1-.491.897M92.94 145.73l-.697 4.084a.542.542 0 0 1-.795.384l-2.36-1.292a.54.54 0 0 1-.105-.875l3.06-2.792c.38-.347.986-.015.897.491M95.156 144.328l4.084.699c.364.063.559.467.381.794l-1.291 2.36a.54.54 0 0 1-.873.106l-2.793-3.06a.542.542 0 0 1 .492-.9" fill="#6c648f"/><path d="M146.65 28.113s-1.909 4.588-.92 8.848c-1.123-1.261-1.433-7.257-1.433-7.257z" fill="#ccd9ef"/><path d="M158.484 132.752c-1.723.627-3.547.841-5.234.841-1.174 0-2.28-.102-3.245-.242-.046-.184-.096-.368-.145-.552-.217-.816-.441-1.632-.67-2.443 2.234.451 6.142.895 9.18-.6.03.775.057 1.554.089 2.33.007.222.017.444.025.666M158.802 139.173c-1.611.529-3.294.713-4.863.713-.846 0-1.658-.054-2.407-.136-.202-.962-.42-1.94-.655-2.924 2.163.34 5.214.498 7.76-.582.048.994.105 1.973.165 2.929M178.833 128.387c-.052 1.017-.11 2.083-.165 3.207-1.824.728-3.778.974-5.582.974a23.43 23.43 0 0 1-3.899-.349l-.758-3.022c2.201.509 7.014 1.262 10.404-.81M178.513 135.2c-.033.965-.065 1.97-.087 3.014-1.545.477-3.149.645-4.646.645-1.067 0-2.08-.084-2.981-.206l-.744-2.967c2.175.406 5.633.728 8.458-.486" fill="#d0c6df"/><path d="M157.622 71.68c-3.586-.683-5.739-1.68-6.656-2.18l.057-.146c.134-.338.264-.675.403-1.011l.06.017c.287.071.92.222 1.835.403 1.059.208 2.478.453 4.163.659a165.322 165.322 0 0 0 .138 2.258" fill="#9381b4"/><path d="M165.811 72.397c-.272 0-.538-.002-.802-.007-2.858-.042-5.255-.312-7.23-.68l-.004-.04-.114.018-.04-.008a165.322 165.322 0 0 1-.138-2.258c1.091.131 2.292.246 3.577.323l.039.003.036.002a57.55 57.55 0 0 0 3.306.098c2.537 0 5.281-.178 8.062-.659v.001a39.267 39.267 0 0 0 2.804-.59 36.73 36.73 0 0 0 1.553-.424c.265.746.431 1.569.46 2.393.008.24.01.494.01.762-4.433.77-8.257 1.066-11.519 1.066" fill="#9381b4"/><path d="m157.779 71.71-.118-.022.114-.017z" fill="#8b71a7"/><path d="M163.53 69.842a57.55 57.55 0 0 1-.116-.003c.038.002.078.002.116.003zm-2.431-.094c-.013-.001-.026-.001-.038-.003.012.002.025.002.038.003zm-7.778-.985a40.696 40.696 0 0 1-1.835-.403l-.06-.017a39.6 39.6 0 0 0 1.895.42" fill="#c0947f"/><path d="M172.503 69.19h.002c.023-.004.046-.01.068-.012l.146-.027a38.83 38.83 0 0 0-.216.04" fill="#9b7ca5"/><path d="m172.573 69.178.146-.027-.146.027" fill="#c08b7b"/><path d="M145.822 14.884c0 .5-3.469-.34-6.466-.34-2.996 0-5.428 1.085-5.428.584 0-.498 1.68-2.394 5.428-2.394 2.997 0 6.466 1.65 6.466 2.15" fill="#fad49b"/><path d="M137.282 12.7s-2.208-5.969 2.986-7.455c1.065-.291 2.34.476 2.34.476s-5.587 2.137-4.018 7.283c-.947.376-1.308-.305-1.308-.305" fill="#f7c578"/></svg>