<svg xmlns="http://www.w3.org/2000/svg" width="272.233" height="240.939" viewBox="0 0 204.175 180.704"><path d="M120.236 1 90.352 19.033v-7.84l16.892-10.191zm20.363 0h12.992L90.352 39.159v-7.84zm33.355 0h12.993L90.352 59.285v-7.84zm29.22 2.495v7.84L90.353 79.409v-7.84zm0 20.126v7.84L90.353 99.535v-7.84zm0 20.126v7.84L90.353 119.66v-7.84zm0 20.126v7.84L90.353 139.786v-7.84zm0 20.126v7.84L90.353 159.912v-7.84zm0 20.126v7.84L90.909 179.702h-.556V172.2zm0 20.125v7.84l-78.911 47.613H111.27zm0 20.126v7.84l-45.556 27.487h-12.992zm0 20.126v7.84l-12.2 7.361H177.98z" fill="#fff"/><path d="M90.352 1c49.347 0 89.351 40.005 89.351 89.352s-40.004 89.351-89.351 89.351c-49.348 0-89.351-40.004-89.351-89.351S41.005 1.001 90.352 1.001" fill="#fff" fill-rule="evenodd"/><path d="M90.352 176.344c47.492 0 85.992-38.5 85.992-85.992 0-47.492-38.5-85.992-85.992-85.992C42.86 4.36 4.36 42.86 4.36 90.352c0 47.492 38.5 85.992 85.992 85.992" fill="#f7941d" fill-rule="evenodd"/><path d="M173.185 113.512H7.519c10.112 36.242 43.366 62.832 82.833 62.832s72.72-26.59 82.833-62.832" fill="#315172" fill-rule="evenodd"/><path d="M63.422 34.016c6.143 1.27 10.856 3.795 14.14 7.572 3.283 3.778 4.924 8.35 4.924 13.716 0 4.378-1.183 8.438-3.548 12.18-2.365 3.742-5.966 6.76-10.803 9.056-4.837 2.294-10.82 3.442-17.952 3.442a64.154 64.154 0 0 1-15.516-1.907c-5.12-1.27-9.55-3.071-13.292-5.401L29 56.893c2.895 1.977 6.16 3.495 9.797 4.554 3.637 1.06 7.22 1.589 10.75 1.589 3.601 0 6.461-.671 8.58-2.013 2.118-1.341 3.177-3.248 3.177-5.719 0-4.801-3.778-7.202-11.333-7.202h-8.79V34.863L54.42 20.565H25.186V4.36H78.78v13.133z" fill="#315172"/><path d="M85.863 139.572h-1.787v-17.26a5.17 5.17 0 0 0-5.164-5.162H61.921c-6.52 0-11.828 5.306-11.828 11.827v8.94h-1.788v-8.94c0-7.507 6.11-13.616 13.616-13.616h16.991c3.832 0 6.95 3.12 6.95 6.952z" fill="#304874"/><path d="M154.096 32.764c.416 2.022.668 4.292.811 6.62a88.38 88.38 0 0 1 .149 4.768c.002.387 0 .772-.001 1.151-.042 6.775-.706 12.636-.706 12.636l-6.895-1.237c-.506-3.818-1.23-7.246-1.756-11.295a79.289 79.289 0 0 1-.542-5.896 83.513 83.513 0 0 1-.112-5.013c.008-.802.237-1.586.583-2.318 1.502-3.16 5.892-3.634 7.89-.76.289.42.48.874.579 1.344" fill="#f7a28f"/><path d="M146.07 49.737s2.952-.525 5.717.605c-.263-6.258-8.057-15.22-8.057-15.22s.363 7.872 2.34 14.615" fill="#ccd9ef"/><path d="m126.722 67.715.242.379c.16.25.42.421.715.47l.214.097c.3.156.651.183.973.075l.12-.04.303.06c.309.062.627-.022.865-.228a.85.85 0 0 0 .818-.426l.125-.387c-1.477-.294-4.375 0-4.375 0M148.069 52.567c-5.02 1.808-9.43 6.163-19.083 10.84l1.797 2.641s19.549-6.676 23.79-9.091l.36-.235c1.37-1.008-.883-6.31-6.864-4.155" fill="#f7a28f"/><path d="M172.317 144.705c-.853 1.415-2.878 2.496-5.07 3.08a2.455 2.455 0 0 0-1.811 2.658h14.21a9.494 9.494 0 0 0-1.015-5.429l-.16-.309zM152.613 145.184c-.909 1.152-3.056 2.353-5.088 3.004a2.367 2.367 0 0 0-1.641 2.255h14.485a8.95 8.95 0 0 0-.876-5.001l-.128-.258z" fill="#41376f"/><path d="M167.588 81.005c-.136 1.076-.59 2.534-1.249 4.213-1.309 3.333-3.442 7.543-5.543 11.416-3.173 5.845-6.274 10.93-6.37 11.087l-12.664-3s2.173-17.293 9.204-35.221l.057-.146c.133-.338.264-.675.402-1.011.52-1.295 1.069-2.594 1.644-3.886h6.17s2.085 2.285 4.175 5.382a40.633 40.633 0 0 1 1.596 2.551c.263.46.52.932.757 1.406 1.246 2.459 2.09 5.031 1.82 7.209" fill="#9c8fc0"/><path d="M177.33 71.331c-.01 3.645-.803 9.602-.803 9.602-.662 12.451-.92 28.661-.92 28.661h-12.093s-1.3-5.136-2.718-12.96c-1.219-6.735-2.523-15.461-3.153-24.616l-.021-.338a166.24 166.24 0 0 1-.138-2.258c-.089-1.65-.154-3.307-.192-4.965h17.93s.245.38.57 1.006c.35.67.788 1.625 1.106 2.694.227.764.393 1.588.422 2.412.008.24.01.495.01.762" fill="#9c8fc0"/><path d="M160.967 98.417c-.108-.567-.216-1.153-.323-1.756-1.566-8.641-2.626-16.929-3.155-24.634l-.023-.307.31-.05.023.337c.53 7.692 1.59 15.969 3.15 24.6.11.601.218 1.186.324 1.753z" fill="#8b71a7"/><path d="M179.006 124.527c-.016.538-.04 1.09-.065 1.658-.032.706-.068 1.44-.108 2.202-.052 1.016-.11 2.083-.165 3.206-.016.289-.028.579-.044.875l-.068 1.634-.043 1.098a167.618 167.618 0 0 0-.11 8.43s.836.974.368 1.668c-.767 1.14-5.854.599-6.683-.114-.831-.715-.142-1.96-.142-1.96l-.382-1.519-.766-3.052-.743-2.966-.321-1.286-.416-1.662-.13-.52-.759-3.022-.686-2.729-.423-1.695-3.806-15.179h12.093s1.76 2.217 2.795 6.29c.63 2.488.713 5.26.604 8.643M159.363 145.184c-.9 1.363-6.133 1.325-6.909.185-.513-.757-.084-1.02-.154-1.461a84.058 84.058 0 0 0-.768-4.158c-.201-.962-.42-1.94-.655-2.924a148.49 148.49 0 0 0-.872-3.475c-.046-.184-.096-.368-.145-.552a192.915 192.915 0 0 0-1.97-6.852c-3.144-10.253-6.593-18.955-6.593-18.955l.465-2.27 12.663 3.004s1.962 2.39 2.587 5.163c.671 2.987.968 7.486 1.182 12.404l.076 1.828c.035.872.068 1.753.1 2.635.03.775.057 1.554.089 2.33.007.222.017.444.025.666.015.386.032.773.049 1.158.032.785.068 1.563.105 2.334.047.994.104 1.973.164 2.929.103 1.61.228 3.152.384 4.584.054.49.756.555.177 1.427" fill="#9c8fc0"/><path d="M176.898 68.157c-1.486.45-2.944.782-4.393 1.032-2.782.482-5.526.66-8.064.66-6.67 0-11.95-1.24-12.955-1.489l-.173-.046s-.521-.375-.66-.943c-.113-.463.026-1.052.906-1.671.073-.314.15-.619.226-.915.062-.24.126-.475.186-.708.096-.36.189-.718.275-1.078l.059-.255c.206-.89.363-1.816.402-2.887a15.24 15.24 0 0 0-.046-1.818c-.039-.457-.096-.94-.179-1.456-.274-1.726-.808-3.821-1.727-6.493l-.089-.252c-.765-2.187-2.365-4.462-4.16-7.045-.169-.24-.336-.48-.502-.722a12.03 12.03 0 0 1-1.332-2.54c-.587-1.523-.863-3.093-.955-4.573-.11-1.805.05-3.472.255-4.739.237-1.454.533-2.38.533-2.38l3.943-2.103 4.136-2.21.472-.25.192.021c.3.043.618.086.949.135.41.059.84.125 1.282.196 3.63.601 8.182 1.694 10.263 3.696l.128.125c.547.568 1.09 1.347 1.623 2.3 3.182 5.671 6.034 17.43 7.741 26.106l.343 1.775c.223 1.19.421 2.303.594 3.307l.26 1.593.03.2c.236 1.51.38 2.635.418 3.221.908 1.585.192 2.11.02 2.206" fill="#f5b653"/><path d="M152.482 56.583c-.2-1.268-.543-2.737-1.075-4.488.532 1.751.874 3.22 1.075 4.488z" fill="#f49075"/><path d="M155.48 23.628zm-1.283-.196a95.849 95.849 0 0 0-.662-.095c.214.03.435.06.662.095" fill="#e7c9c5"/><path d="M152.482 56.583c-.2-1.268-.543-2.737-1.075-4.488a57.19 57.19 0 0 0-.652-2.005c7.656-7.459 1.829-26.563 1.829-26.563l.664-.228.287.038a95.849 95.849 0 0 1 1.944.291c3.63.601 8.182 1.694 10.263 3.696-.03.051-.06.103-.094.157a3.938 3.938 0 0 0-.394-.225c-1.013-1.006-2.184-1.58-3.458-1.58-.295 0-.596.03-.902.093-3.48.721-5.466 5.436-4.572 10.664-.469 3.252-.837 7.272-1.339 12.012.065.363.156.69.268.984l-.005.052a99.67 99.67 0 0 1-.32 3.056l2.392 1.445c-1.2 1.106-2.463 2.252-2.612 2.318-.125.056-1.125.17-2.224.283" fill="#f29e48"/><path d="M176.46 62.73c-6.269 1.799-13.192 2.248-18.569 2.248-2.415 0-4.517-.09-6.104-.193.158-.61.319-1.195.46-1.786 5.167.297 15.325.438 23.924-2.063.106.645.206 1.244.29 1.794M175.577 57.63c-6.325 1.851-13.345 2.31-18.783 2.31a97.91 97.91 0 0 1-4.087-.085c.021-.558.01-1.159-.044-1.816 5.507.225 14.708.135 22.571-2.184.119.609.233 1.2.343 1.775" fill="#fedbbe"/><path d="M147.96 17.234s3.036 5.219 5.098 6.04l-8.553 4.567s-.87-3.27-3.05-6.757c1.452-3.341 6.505-3.85 6.505-3.85" fill="#f7a28f"/><path d="M177.091 66.365v-.001zm-.007-.018c0-.001-.002-.001-.002-.003 0 .002.002.002.002.003zm-.008-.017c-.002-.002-.002-.003-.002-.005 0 .002 0 .003.002.005zm-.008-.017-.004-.006.004.006zm-.01-.02-.001-.004.001.005zm-.01-.02-.001-.002s.002 0 .002.002zm-.009-.02c-.002 0-.002-.002-.002-.003 0 0 0 .003.002.003zm-.01-.02c0-.001 0-.003-.002-.004l.003.004zm-.01-.017v-.006.006zm-.008-.02zm-.01-.018zm-.01-.019-.003-.006.004.006zm-.01-.02c0-.002 0-.004-.002-.005l.001.005zm-.011-.023v-.001.001zm-.012-.02c0-.002-.001-.004-.003-.005.002.001.003.003.003.005zm-.009-.02c-.002 0-.003-.004-.005-.007.002.003.003.006.005.007zm-.011-.018-.003-.009.003.009zm-.01-.02c-.001-.003-.003-.006-.005-.007.002.003.004.004.005.008zm-.011-.019-.004-.009c0 .003.003.006.004.01zm-.011-.02-.005-.008.005.008zm-.01-.021c-.003-.001-.004-.004-.006-.006l.005.006zm-1.32-8.348z" fill="#e8d0cf"/><path d="M172.72 69.15a36.37 36.37 0 0 0 4.175-.991.225.225 0 0 1-.035.017 36.15 36.15 0 0 1-4.14.975" fill="#ab85a2"/><path d="M172.504 69.19c.46-1.749.708-3.68.801-5.674a48.634 48.634 0 0 0 3.156-.786c.236 1.51.38 2.635.418 3.221l.011.02c.002.003.003.006.005.007.002.005.005.008.006.013l.005.008.007.011c0 .003.003.006.004.01.002.003.005.006.006.01.002.002.004.005.005.009a.023.023 0 0 0 .007.01l.003.009a.052.052 0 0 1 .006.011c.002.003.003.006.005.007l.006.015c.002.001.003.003.003.005l.012.019v.001c.003.006.006.013.01.018v.005a.06.06 0 0 1 .008.014l.004.006a.04.04 0 0 1 .006.013.01.01 0 0 1 .003.006l.006.013a.492.492 0 0 0 .011.02c0 .002.002.002.002.005a.048.048 0 0 1 .007.013l.003.004.007.017s0 .003.002.003c.004.006.005.012.008.018 0 0 .002 0 .002.002l.008.016.001.005.006.013.004.006.006.012c0 .002 0 .003.002.005.001.005.004.01.006.014 0 .002.002.002.002.003l.006.017h.001c.57 1.269-.04 1.706-.196 1.795a36.37 36.37 0 0 1-4.176.992l-.146.027-.068.011h-.001zm.848-7.536a53.095 53.095 0 0 0-.107-3.409 45.93 45.93 0 0 0 2.332-.615c.222 1.19.421 2.303.592 3.306a44.25 44.25 0 0 1-2.817.718" fill="#f2a449"/><path d="M173.305 63.516a42.53 42.53 0 0 0 .047-1.862 44.25 44.25 0 0 0 2.817-.718v.001c.108.644.205 1.243.292 1.793a48.634 48.634 0 0 1-3.156.786" fill="#fbc3a1"/><path d="m152.706 59.882.001-.027v.002l-.001.025" fill="#e8d0cf"/><path d="M152.305 62.746c.204-.886.362-1.802.401-2.864l.001-.025v-.002a97.91 97.91 0 0 0 6.184.063 26.038 26.038 0 0 1-6.499 2.802z" fill="#f2a449"/><path d="M152.707 59.855a16.904 16.904 0 0 0 0-.008v.008" fill="#e8d0cf"/><path d="M152.707 59.847a16.368 16.368 0 0 0-.003-1.088l-.004-.12.001-.001c.019.426.02.827.006 1.209" fill="#f2a449"/><path d="M168.669 32.143a26.749 26.749 0 0 0-1.176-2.395h-.002.002c.398.709.79 1.512 1.176 2.395" fill="#e8d0cf"/><path d="M156.688 58.122c-1.096 0-2.126-.02-3.07-.048.532-.336 1.008-.712 1.316-1.352.475-.995 1.889-1.524 2.818-2.477l3.399 2.055s.609-1.725 1.434-4.304l.187-.581c.011-.035.023-.07.033-.106.798-.25 1.319-.485 1.319-.485s.986-2.442 1.973-5.772c2.702-1.474 3.456-5.998 2.454-10.825a20.383 20.383 0 0 0-.568-2.152c-.103-.859-.287-1.653-.57-2.348l.078.02.002.001c.398.709.79 1.512 1.176 2.395 2.7 6.17 5.07 16.122 6.565 23.712-.7.208-1.41.397-2.128.567-.616-6.815-2.189-12.696-2.189-12.696s-.538 1.677-1.57 4.119a25.842 25.842 0 0 1-7.69 10.145 91.796 91.796 0 0 1-4.969.132" fill="#f2a449"/><path d="M156.794 59.94a97.91 97.91 0 0 1-4.087-.085v-.008c.015-.382.013-.783-.006-1.209.31-.201.621-.377.918-.564.943.028 1.973.048 3.07.048 1.543 0 3.218-.037 4.969-.132-.878.7-1.803 1.345-2.767 1.928a93.27 93.27 0 0 1-2.097.023zm16.451-1.695a61.013 61.013 0 0 0-.139-1.823c.718-.17 1.428-.36 2.128-.567l.011.06.332 1.715a45.93 45.93 0 0 1-2.332.615" fill="#fbc3a1"/><path d="M164.124 50.824s-8.065 3.624-9.14-2.379c3.944-5.443 6.763-3.653 6.763-3.653z" fill="#8b71a7"/><path d="M168.551 34.227c1.129 5.436.03 10.486-3.568 11.233-3.598.746-7.43-3.057-8.56-8.495-1.128-5.435.872-10.449 4.471-11.196 3.599-.746 6.528 3.02 7.657 8.458" fill="#a9bee2"/><path d="M167.31 30.997c-.098 2.062-.418 4.324-.858 6.615-.073.38-.15.765-.23 1.146a94.215 94.215 0 0 1-.81 3.51c-.094.376-.193.746-.289 1.114a149.568 149.568 0 0 1-1.45 5.13c-.381 1.26-.752 2.443-1.088 3.484-.825 2.58-1.434 4.304-1.434 4.304l-6.225-3.763c.125-1.036.23-2.05.32-3.056.081-.876.154-1.746.229-2.624.153-1.835.316-3.697.56-5.695.044-.37.096-.746.146-1.127.159-1.144.344-2.342.58-3.6.065-.368.138-.742.213-1.123a84.516 84.516 0 0 1 1.14-4.882c.205-.776.622-1.478 1.14-2.1 2.242-2.687 6.61-2.058 7.83 1.222.179.479.249.965.227 1.445" fill="#f8bda8"/><path d="m72.743 142.372-1.559-1.04 47.547-71.344a9.234 9.234 0 0 1 7.7-4.122h.48v1.873h-.48a7.364 7.364 0 0 0-6.142 3.287z" fill="#b0bddd"/><path d="M138.404 67.715h-11.973a.913.913 0 0 1 0-1.825h11.973a.913.913 0 0 1 0 1.825" fill="#f5b653"/><path d="m93.455 142.373-1.557-1.04 47.636-71.483c.283-.426.309-.944.068-1.395a1.33 1.33 0 0 0-.932-.693.926.926 0 0 1-.746-.915.935.935 0 0 1 1.102-.923 3.189 3.189 0 0 1 2.227 1.649 3.2 3.2 0 0 1-.16 3.316z" fill="#b0bddd"/><path d="M65.678 135.797a9.363 9.363 0 0 0-2.434-.934v-.234h-2.472a9.32 9.32 0 0 0-7.725 4.788 9.292 9.292 0 0 0 7.94 13.797l2.257.003v-.238a9.291 9.291 0 0 0 2.434-17.181" fill="#41376f"/><path d="M71.768 148.428a9.293 9.293 0 0 1-16.252-9.01 9.29 9.29 0 0 1 12.631-3.62c4.488 2.488 6.108 8.142 3.621 12.63" fill="#6c648f"/><path d="M70.109 147.509a7.397 7.397 0 0 1-10.053 2.88 7.396 7.396 0 0 1-2.881-10.051 7.393 7.393 0 0 1 10.051-2.881 7.394 7.394 0 0 1 2.883 10.052" fill="#41376f"/><path d="m64.048 142.114.698-4.083a.543.543 0 0 1 .793-.384l2.361 1.291c.325.18.38.625.106.875l-3.06 2.793a.541.541 0 0 1-.898-.492M61.834 143.517l-4.084-.7a.54.54 0 0 1-.383-.792l1.291-2.36a.54.54 0 0 1 .875-.107l2.79 3.062a.54.54 0 0 1-.49.897M63.236 145.73l-.698 4.084a.542.542 0 0 1-.795.384l-2.36-1.292a.541.541 0 0 1-.105-.874l3.06-2.793a.541.541 0 0 1 .898.491M65.45 144.328l4.084.699a.543.543 0 0 1 .384.794l-1.294 2.361a.54.54 0 0 1-.873.105l-2.792-3.06a.542.542 0 0 1 .491-.9" fill="#6c648f"/><path d="M93.89 150.827H33.692a3.538 3.538 0 0 1-3.539-3.537v-2.919h63.735z" fill="#6c648f"/><path d="M93.348 137.284v7.355l-63.194-.27.656-.654a21.96 21.96 0 0 1 15.527-6.431z" fill="#f5b653"/><path d="M93.348 137.284v7.278l-45.72-.193.655-.654a21.974 21.974 0 0 1 15.53-6.431z" fill="#f68c39"/><path d="M65.528 133.47H50.246a.85.85 0 0 0-.849.85v2.962h16.982v-2.962c0-.469-.38-.85-.85-.85" fill="#fec752"/><path d="M85.952 133.47H62.824a.851.851 0 0 0-.85.85v2.962h24.827v-2.962c0-.469-.38-.85-.85-.85" fill="#f5b653"/><path d="M84.381 128.018v5.453h-33.02v-3.648a8.477 8.477 0 0 1 8.475-8.478H77.71a6.674 6.674 0 0 1 6.671 6.673" fill="#f5b653"/><path d="M84.381 128.018v5.453H61.785v-3.648a8.477 8.477 0 0 1 8.476-8.478h7.449a6.674 6.674 0 0 1 6.671 6.673" fill="#f68c39"/><path d="M77.153 132.749h-9.705a.839.839 0 0 1-.838-.838v-4.16c0-.465.376-.84.838-.84h9.705c.465 0 .839.375.839.84v4.16a.838.838 0 0 1-.839.838" fill="#b06627"/><path d="M77.456 132.749H67.75a.84.84 0 0 1-.84-.838v-4.16a.84.84 0 0 1 .84-.84h9.705a.84.84 0 0 1 .84.84v4.16a.839.839 0 0 1-.84.838" fill="#fec752"/><path d="m67.751 132.164-.255-.253v-4.16l.255-.256h9.705l.255.255v4.16l-.255.254z" fill="#41376f"/><path d="M67.872 131.834h1.017v-4.15h-1.017z" fill="#6c648f"/><path d="M67.872 131.834h.31v-4.15h-.31z" fill="#281d4e"/><path d="M69.832 131.834h1.02v-4.15h-1.02z" fill="#6c648f"/><path d="M69.832 131.834h.31v-4.15h-.31z" fill="#281d4e"/><path d="M71.792 131.834h1.019v-4.15h-1.019z" fill="#6c648f"/><path d="M71.792 131.834h.313v-4.15h-.313z" fill="#281d4e"/><path d="M73.754 131.834h1.017v-4.15h-1.017z" fill="#6c648f"/><path d="M73.754 131.834h.31v-4.15h-.31z" fill="#281d4e"/><path d="M75.714 131.834h1.02v-4.15h-1.02z" fill="#6c648f"/><path d="M75.714 131.834h.311v-4.15h-.31z" fill="#281d4e"/><path d="m135.79 16.798.191.717s-.016.13-.033.355c-.046.581-.084 1.806.187 3.125.585 2.675 2.792 5.72 3.49 6.83a.616.616 0 0 0 .571.287c.695-.059 2.155-.194 2.614-.343.868-.261 4.907-3.532 5.492-5.066.066-.901.715-4.082.715-4.082s.364-.895.931-1.686c.156-.219-.19-1.265.053-1.805.893-1.972-1.922-7.83-3.718-8.242-1.306-.3-2.978-.617-4.648-.745-3.75-.29-6.977 2.712-6.866 6.469.01.307.041.553.082.706.425 1.557.75 2.767.94 3.48" fill="#f8bda8"/><path d="M147.177 17.331c-.484 1.28-.18 2.58.677 2.903.855.323 1.942-.453 2.426-1.732.481-1.28.179-2.58-.679-2.903-.855-.323-1.942.451-2.424 1.732" fill="#f8bda8"/><path d="M153.058 23.275c-1.787 2.11-7.318 5.792-9.084 6.944.238-1.456.53-2.38.53-2.38l3.946-2.103z" fill="#ccd9ef"/><path d="m132.692 67.715.242.379c.161.25.421.421.716.47l.213.097c.302.156.652.183.974.075l.12-.04.303.06c.309.062.627-.022.864-.228a.85.85 0 0 0 .819-.426l.126-.387c-1.48-.294-4.376 0-4.376 0" fill="#f7a28f"/><path d="M154.042 52.567c-5.022 1.808-9.43 6.163-19.085 10.84l1.799 2.641s19.545-6.676 23.787-9.091l.362-.235c1.37-1.008-.883-6.309-6.863-4.155" fill="#f8bda8"/><path d="M134.957 63.406s-.486.172-1.057.485a2.906 2.906 0 0 0-1.439 3.129c.165.801.834 1.353 1.615 1.353h1.575c.631 0 1.129-.577.992-1.192-.088-.4-.033-.854.37-1.291.46-1.663-2.056-2.484-2.056-2.484" fill="#f8bda8"/><path d="M164.124 50.824a6.526 6.526 0 0 0-.953-.679c-1.667-.988-3.828-1.408-5.51-1.584a21.799 21.799 0 0 0-2.678-.116c1.48-13.996 1.804-21.721 6.971-21.884.77-.027 1.645.117 2.65.432 8.101 2.562-.48 23.83-.48 23.83" fill="#ccd9ef"/><path d="M128.986 63.406s-.485.172-1.059.485a2.907 2.907 0 0 0-1.437 3.129c.165.801.833 1.353 1.615 1.353h1.577c.629 0 1.126-.577.99-1.192-.089-.4-.033-.854.37-1.291.46-1.663-2.056-2.484-2.056-2.484" fill="#f7a28f"/><path d="M150.412 16.412c-1.977-.796-3.766-1.347-5.367-1.72-6.663-1.551-10.044 0-10.044 0-2.265-6.3 2.343-9.025 7.293-9.128a14.45 14.45 0 0 1 3.029.256c5.803 1.116 6.356 6.662 5.089 10.592" fill="#f5b653"/><path d="M163.171 50.145c-.202.655-.399 1.275-.586 1.851-2.355-1.432-6.212-2.286-7.339-2.515.032-.346.062-.694.092-1.04 1.194-.005 5.154.115 7.833 1.704" fill="#f7a28f"/><path d="M164.124 50.824a6.526 6.526 0 0 0-.953-.679c-1.18-.7-2.608-1.115-3.94-1.36a19.871 19.871 0 0 0-1.57-.224c7.165-5.563 5.28-17.586 4.293-22 .059-.002.118-.004.178-.004.726 0 1.543.146 2.472.436 2.594.82 3.478 3.561 3.48 6.906.005 7.1-3.96 16.925-3.96 16.925" fill="#c4d1eb"/><path d="M163.171 50.145c-1.18-.7-2.608-1.114-3.94-1.36 1.332.245 2.76.66 3.94 1.36z" fill="#e3a9a4"/><path d="m150.412 16.412-.064-.025a39.04 39.04 0 0 0-1.834-.685c-1.24-.43-2.397-.76-3.469-1.01.27-4.961-1.456-7.75-2.75-9.128.106-.001.212-.003.32-.003.907 0 1.825.089 2.708.259 4.193.807 5.646 3.927 5.649 7.079a11.54 11.54 0 0 1-.56 3.513" fill="#f3a84b"/><path d="M93.065 141.707h-1.787v-24.21c0-4.191-3.41-7.603-7.604-7.603H59.842c-9.347 0-16.95 7.605-16.95 16.952v12.536h-1.79v-12.536c0-10.333 8.408-18.74 18.74-18.74h23.832c5.18 0 9.391 4.213 9.391 9.391z" fill="#b0bddd"/><path d="M49.283 145.096a3.643 3.643 0 1 1-7.285.002 3.643 3.643 0 0 1 7.285-.002" fill="#304874"/><path d="M48.42 145.096a2.78 2.78 0 1 1-5.56.002 2.78 2.78 0 0 1 5.56-.002" fill="#7891c6"/><path d="M95.382 135.797a9.354 9.354 0 0 0-2.432-.934v-.234h-2.472a9.32 9.32 0 0 0-7.726 4.788c-2.488 4.488-.865 10.144 3.621 12.632a9.26 9.26 0 0 0 4.32 1.165l2.257.003v-.238a9.267 9.267 0 0 0 6.053-4.551c2.49-4.488.867-10.142-3.62-12.63" fill="#4b4567"/><path d="M101.472 148.428a9.292 9.292 0 0 1-12.631 3.62c-4.486-2.487-6.108-8.143-3.62-12.63a9.292 9.292 0 0 1 16.251 9.01" fill="#6c648f"/><path d="M99.813 147.509a7.395 7.395 0 1 1-12.93-7.172 7.395 7.395 0 0 1 12.93 7.172" fill="#4b4567"/><path d="m93.753 142.114.699-4.083a.542.542 0 0 1 .793-.384l2.36 1.291c.327.18.381.625.107.875l-3.062 2.793a.54.54 0 0 1-.897-.492M91.538 143.517l-4.083-.7a.541.541 0 0 1-.383-.792l1.29-2.36a.541.541 0 0 1 .875-.107l2.792 3.062a.54.54 0 0 1-.491.897M92.94 145.73l-.697 4.084a.542.542 0 0 1-.794.384l-2.361-1.292a.54.54 0 0 1-.105-.874l3.06-2.793c.38-.347.986-.015.897.491M95.156 144.328l4.084.699c.364.063.559.467.381.794l-1.291 2.361a.54.54 0 0 1-.873.105l-2.793-3.06a.542.542 0 0 1 .492-.9" fill="#6c648f"/><path d="M146.65 28.113s-1.909 4.588-.92 8.848c-1.124-1.262-1.433-7.257-1.433-7.257z" fill="#ccd9ef"/><path d="M158.484 132.752c-1.723.627-3.547.841-5.234.841-1.173 0-2.28-.101-3.245-.242-.046-.184-.096-.368-.145-.552a159.37 159.37 0 0 0-.67-2.443c2.234.451 6.142.895 9.18-.6.03.775.057 1.554.089 2.33.007.222.017.444.025.666M158.802 139.173c-1.612.53-3.294.713-4.863.713-.846 0-1.658-.054-2.407-.136-.201-.962-.42-1.94-.655-2.924 2.163.34 5.214.498 7.76-.582.048.994.105 1.973.165 2.929M178.833 128.387c-.052 1.016-.11 2.083-.165 3.206-1.824.73-3.778.975-5.581.975a23.4 23.4 0 0 1-3.9-.349l-.758-3.022c2.201.51 7.014 1.262 10.404-.81M178.513 135.2c-.033.965-.065 1.97-.087 3.014-1.545.477-3.149.645-4.647.645-1.066 0-2.079-.084-2.98-.206l-.744-2.966c2.175.405 5.633.727 8.458-.487" fill="#d0c6df"/><path d="M157.622 71.68c-3.586-.683-5.738-1.68-6.656-2.18l.057-.146c.133-.338.264-.675.402-1.011l.06.017c.287.071.921.222 1.836.403 1.058.209 2.478.453 4.163.659a166.24 166.24 0 0 0 .138 2.258" fill="#9381b4"/><path d="M165.811 72.397c-.272 0-.538-.002-.802-.007-2.858-.042-5.256-.312-7.23-.68l-.004-.04-.114.018-.04-.008a166.24 166.24 0 0 1-.138-2.258c1.091.131 2.292.246 3.577.323l.038.003.037.002a56.547 56.547 0 0 0 3.306.098c2.537 0 5.282-.177 8.063-.659v.002a39.613 39.613 0 0 0 2.803-.59 36.15 36.15 0 0 0 1.553-.425 8.05 8.05 0 0 1 .46 2.393c.008.24.01.495.01.762-4.433.77-8.257 1.066-11.519 1.066" fill="#9381b4"/><path d="m157.779 71.71-.118-.022.114-.017z" fill="#8b71a7"/><path d="M163.53 69.842a56.547 56.547 0 0 1-.116-.003c.038.002.078.002.115.003zm-2.431-.094c-.013-.001-.026-.001-.038-.003.012.002.025.002.037.003zm-7.778-.985a40.404 40.404 0 0 1-1.835-.403l-.06-.017c.315.079.968.236 1.895.42" fill="#c0947f"/><path d="M172.504 69.19h.001c.023-.004.046-.01.068-.012l.146-.027a39.026 39.026 0 0 0-.215.04" fill="#9b7ca5"/><path d="m172.573 69.178.146-.027-.146.027" fill="#c08b7b"/><path d="M145.822 14.884c0 .5-3.469-.34-6.465-.34-2.997 0-5.428 1.085-5.428.584 0-.498 1.68-2.394 5.428-2.394 2.996 0 6.465 1.65 6.465 2.15" fill="#fad49b"/><path d="M137.282 12.7s-2.208-5.969 2.986-7.455c1.065-.291 2.34.476 2.34.476s-5.587 2.137-4.018 7.283c-.947.376-1.308-.305-1.308-.305" fill="#f7c578"/></svg>