<svg xmlns="http://www.w3.org/2000/svg" width="272.233" height="240.939" viewBox="0 0 204.175 180.704"><path d="M120.236 1 90.352 19.033v-7.84l16.892-10.191zM140.6 1h12.993l-63.24 38.158v-7.84zm33.356 0h12.992L90.352 59.285v-7.84zm29.22 2.495v7.84L90.352 79.409v-7.84zm0 20.126v7.84L90.352 99.535v-7.84zm0 20.126v7.84L90.352 119.66v-7.84zm0 20.126v7.84L90.352 139.786v-7.84zm0 20.126v7.84L90.352 159.912v-7.84zm0 20.126v7.84L90.908 179.702h-.556V172.2zm0 20.125v7.84l-78.912 47.613h-12.992zm0 20.126v7.84l-45.556 27.487h-12.993zm0 20.126v7.84l-12.201 7.361H177.98z" fill="#fff"/><path d="M90.352 1c49.347 0 89.351 40.005 89.351 89.352s-40.004 89.351-89.351 89.351c-49.348 0-89.351-40.004-89.351-89.351S41.005 1.001 90.352 1.001" fill="#fff" fill-rule="evenodd"/><path d="M90.352 176.344c47.492 0 85.992-38.5 85.992-85.992 0-47.492-38.5-85.992-85.992-85.992C42.86 4.36 4.36 42.86 4.36 90.352c0 47.492 38.5 85.992 85.992 85.992" fill="#f7941d" fill-rule="evenodd"/><path d="M173.185 113.512H7.519c10.112 36.242 43.366 62.832 82.833 62.832s72.72-26.59 82.833-62.832" fill="#315172" fill-rule="evenodd"/><path d="M51.802 4.36V78.5h-20.97V20.565H17.063V4.36z" fill="#315172"/><path d="m37.44 139.245-.345-.043a1.367 1.367 0 0 1-.977-1.666l4.775-18.342a1.367 1.367 0 0 1 2.644.69l-4.774 18.34a1.368 1.368 0 0 1-1.322 1.02" fill="#576a94"/><path d="M115.298 26.77s-2.876.768-3.465 5.823c-.49 4.228 1.69 12.866 3.09 18.153-.723 1.188.292 1.72.292 1.72 3.763 1.21 6.42.33 6.42.33s2.998-24.132-6.337-26.026" fill="#b4a7cd"/><path d="M115.824 52.655c-4.312 3.014-6.069 7.295-12.515 12.632l2.125 2.52s9.753-7.286 15.303-11.748c.907-.73.899-3.262.899-3.262s-3.944-1.446-5.812-.142" fill="#f7c0ad"/><path d="M105.435 67.807s-.184.528-.47 1.063H100.3c-.13-.429-.13-.897.014-1.34.072-.227.157-.448.253-.644.11-.225.237-.41.378-.516 1.343-1.028 2.367-1.083 2.367-1.083l1.35 1.599z" fill="#f39f97"/><path d="M146.777 146.34s.95.938 1.04 2.443c.09 1.506-.404 2.567-.404 2.567h-11.031a1.86 1.86 0 0 1 .926-2.745c1.52-.566 2.388-1.39 3.3-2.264z" fill="#41376f"/><path d="M131.379 71.102c-.898 14.317-4.075 30.951-4.555 33.396l-.057.307h-11.186s-3.713-30.008-1.156-41.727h17.184c.036 2.502-.052 5.22-.23 8.024" fill="#9c8fc0"/><path d="M123.476 23.571h8.438c-.936-1.983-.73-13.992-.73-13.992h-6.976z" fill="#f39f97"/><path d="M144.513 104.498h-11.644s-1.774-6.395-3.721-13.582c-1.933-7.125-4.03-15.029-4.746-18.236l-.033-.35-.032-.413a67.794 67.794 0 0 1-.204-4.185c-.06-2.93.068-4.96.068-4.96h15.374s.726.953 1.606 3.014c1.245 2.928 1.909 6.064 2.028 9.241l.013.365c.024.654.052 1.356.085 2.092.404 10.12 1.206 27.014 1.206 27.014" fill="#9c8fc0"/><path d="m129.364 91.867-.144-.112-.216-.798c-1.75-6.456-3.992-14.86-4.748-18.245l-.019-.194-.016-.173-.034-.415.137-.162.163.137.032.414.017.173.014.165c.757 3.384 2.996 11.774 4.742 18.221l.217.799-.106.184z" fill="#8b71a7"/><path d="M142.922 68.878c-5.863 1.118-10.954 1.555-15.17 1.635-4.09.077-7.363-.187-9.738-.504-2.967-.396-4.529-.872-4.529-.872.05-4.359.525-8.002.988-10.558.46-2.551.91-4.015.91-4.015.05-.566.1-1.141.154-1.717.359-3.893.168-7.81-.517-11.656-1.172-6.616.278-14.421.278-14.421.935-.551 2.274-1.13 3.596-1.635a71.055 71.055 0 0 1 2.823-1.004c1.045-.347 1.76-.56 1.76-.56h8.437s1.284.345 3.218.979a80.799 80.799 0 0 1 6.16 2.288s.508 1.857 1.051 4.377c.378 1.76.396 3.586.03 5.354a58.221 58.221 0 0 1-.87 3.6 59.023 59.023 0 0 0-2.074 12.942c-.14 5.688 2.05 11.848 3.493 15.767" fill="#b4a7cd"/><path d="M127.5 66.254a167.836 167.836 0 0 1-4.893 1.625l-4.677 1.93a92.89 92.89 0 0 1-.03-.77c.188-.03.361-.071.504-.122.78-.26 1.737-1.687 1.737-1.687l2.244-1.017c.118.158.243.306.372.443l2.576-.906c.407-.072 1.211-.43 2.116-.864.013.455.032.91.05 1.368" fill="#8b71a7"/><path d="M147.654 123.796c-.12 2.383-.306 4.825-.487 7.275-.072.96-.142 1.92-.209 2.877a161.549 161.549 0 0 0-.254 4.552c-.04.978-.065 1.946-.072 2.905a64.6 64.6 0 0 0 .049 3.234c.024.572.627 1.031.095 1.702-.644.813-4.989 1.493-6.167 0-.387-.49-.095-.613-.268-1.694-.13-.812-.301-1.884-.511-3.162l-.47-2.832c-.25-1.484-.528-3.117-.827-4.847-.162-.924-.328-1.878-.503-2.85-1.345-7.572-3.025-16.29-4.548-22.073a16.445 16.445 0 0 1-.5-2.96c-.061-.802-.113-1.423-.113-1.423h11.646s.492 1.43 1.14 3.536a45.694 45.694 0 0 1 2 15.76" fill="#9c8fc0"/><path d="M127.59 146.608s.953.937 1.042 2.44c.087 1.507-.406 2.57-.406 2.57l-11.647-.268c-.643-1.001-.19-2.334.923-2.745 1.524-.566 3.431-1.39 4.344-2.264z" fill="#41376f"/><path d="M128.416 130.903c-.08.977-.16 1.97-.235 2.969-.12 1.596-.232 3.214-.325 4.841a184.49 184.49 0 0 0-.143 2.833c-.072 1.696-.116 3.391-.123 5.062l-2.958-.137-2.786-.13c-.1-1.544-.245-3.176-.42-4.861-.097-.92-.203-1.857-.318-2.804a236.804 236.804 0 0 0-.656-4.95c-.137-.956-.28-1.915-.425-2.87-1.515-9.895-3.453-19.416-4.103-22.781-.203-1.05-.343-3.27-.343-3.27l11.242-.3s1.973 3.248 2.443 8.845c.34 4.046-.274 10.438-.85 17.553" fill="#9c8fc0"/><path d="M144.719 75.061s-7.261 1.854-13.733 1.05a18.603 18.603 0 0 1-2.727-.525c-.163-1.309-.299-2.613-.413-3.91l-.014-.172c-.113-1.32-.204-2.628-.273-3.925a239.4 239.4 0 0 1-.058-1.3c-.02-.483-.04-.938-.052-1.393a99.154 99.154 0 0 1-.062-3.125v-.246c-.007-1.263.003-2.51.032-3.738a142.68 142.68 0 0 1 .58-9.965 146.838 146.838 0 0 1 .834-7.083c1.343-9.525 3.182-15.97 3.46-16.923l.035-.12s1.755.313 3.718.813c.793.202 1.619.436 2.375.691 1.389.466 2.555 1.011 2.87 1.58.71 1.273 1.429 8.609 1.02 13.74-.075.925-.185 1.78-.34 2.514a8.63 8.63 0 0 1-.351 1.24c-.363 1.002-.615 2.128-.777 3.347-.109.8-.174 1.637-.205 2.503-.04.961-.036 1.954.003 2.97l.01.223c.028.73.077 1.469.142 2.215l.026.325c.097 1.074.222 2.155.37 3.228.054.39.11.784.17 1.171.061.416.127.817.192 1.213a110.857 110.857 0 0 0 1.615 7.838c.837 3.446 1.553 5.764 1.553 5.764M121.166 24.317s-.864 6.841-1.703 15.396c-.079.82-.16 1.655-.24 2.507a449.04 449.04 0 0 0-.601 7.155 308.323 308.323 0 0 0-.488 7.79c-.06 1.238-.11 2.46-.147 3.657-.024.83-.044 1.646-.058 2.45a124.17 124.17 0 0 0-.005 3.84c.003.322.011.636.018.948.016.598.036 1.183.062 1.749.032.667.07 1.307.118 1.92.121 1.45.286 2.737.51 3.824-1.595.227-3.021.16-4.127.007-1.457-.197-2.36-.535-2.36-.535s.383-6.87 1.016-13.26c.084-.86.174-1.71.267-2.534.133-1.179.277-2.302.427-3.32.067-.45.134-.876.203-1.28.064-.372.117-.763.16-1.174.15-1.468.173-3.17.139-5.01-.013-.849-.04-1.726-.073-2.623-.056-1.572-.13-3.208-.183-4.851a97.157 97.157 0 0 1-.063-2.657c-.051-4.2.164-8.318 1.26-11.546.473-.451 1.102-.836 1.77-1.156.844-.404 1.755-.707 2.504-.917.921-.262 1.594-.38 1.594-.38" fill="#f5b653"/><path d="M37.584 122.658h34.279a8.374 8.374 0 0 0 8.02-5.958l6.469-21.474H23.095l6.469 21.474a8.374 8.374 0 0 0 8.02 5.958" fill="#859fd2"/><path d="M22.637 97.616h63.398a1.195 1.195 0 1 0 0-2.39H22.637a1.195 1.195 0 0 0 0 2.39" fill="#d0d8ec"/><path d="M45.373 138.275c0 5.296-4.294 9.588-9.593 9.588-5.3 0-9.596-4.292-9.596-9.588 0-5.297 4.296-9.589 9.596-9.589s9.593 4.292 9.593 9.589" fill="#3b2852"/><path d="M49.039 138.275c0 5.296-4.295 9.588-9.594 9.588-5.299 0-9.596-4.292-9.596-9.588 0-5.297 4.297-9.589 9.596-9.589s9.594 4.292 9.594 9.589" fill="#665978"/><path d="M44.864 138.275a5.417 5.417 0 0 1-5.419 5.415 5.418 5.418 0 0 1-5.421-5.415 5.418 5.418 0 0 1 5.421-5.415 5.417 5.417 0 0 1 5.42 5.415" fill="#3b2852"/><path d="M91.075 144.673a5.033 5.033 0 0 1-3.886 1.826 4.222 4.222 0 0 1-3.956-2.701l-8.154-20.865h13.744l3.327 17.581a5.03 5.03 0 0 1-1.075 4.159zm3.76-4.662-3.34-17.648-.2-1.048a1.366 1.366 0 0 0-1.341-1.112H55.987c-.367 0-.714.145-.972.404l-1.83 1.849-.201.2-7.83 7.913-1.802 1.818-1.189 1.201-2.976 3.006-.715.72a1.368 1.368 0 0 0-.205 1.653l.217.279c.535.53 1.4.525 1.932-.011l3.689-3.725.642-.649 2.349-2.373 9.46-9.555h15.588l8.543 21.857a6.937 6.937 0 0 0 6.502 4.44 7.756 7.756 0 0 0 5.991-2.816 7.743 7.743 0 0 0 1.654-6.403M92.766 120.53l-.336-.058a.992.992 0 0 1-.6-1.27l18.585-51.66a.995.995 0 0 1 .934-.658h10.34a.993.993 0 0 1 0 1.986h-9.64l-18.347 51.003a.993.993 0 0 1-.936.656" fill="#b0bddd"/><path d="M108.03 67.879a.995.995 0 0 1-.994.99l-9.978.435-18.345 51.003c.19-.03-.193.224-.6.224l-.336-.06a.993.993 0 0 1-.598-1.27l18.583-51.66a.991.991 0 0 1 .937-.655h10.337c.548 0 .995.443.995.993" fill="#b0bddd"/><path d="M55.01 122.658h34.282a8.38 8.38 0 0 0 8.02-5.958l6.465-21.474H40.525l6.467 21.474a8.372 8.372 0 0 0 8.019 5.958" fill="#7891c6"/><path d="M40.453 97.616h63.396a1.196 1.196 0 1 0 0-2.39H40.453a1.196 1.196 0 1 0 0 2.39" fill="#b0bddd"/><path d="M123.747 72.339c-2.36 0-4.328-.323-5.623-.612a58.086 58.086 0 0 1-.103-1.566l-.007-.152.185.025.057.006.114.015c1.591.2 3.554.373 5.869.442.024.416.052.84.086 1.273l-.001-.002-.137.162.034.404c-.16.003-.318.005-.474.005" fill="#81719f"/><path d="M137.047 77.941c-5.26 0-10.082-.748-10.082-.748l-.178-5.035a25.14 25.14 0 0 1-2.266.17l-.002-.009-.032-.414-.162-.135a61.069 61.069 0 0 1-.086-1.273c.666.02 1.361.029 2.085.029h.024c.457 0 .925-.003 1.404-.013.024.33.052.66.08.991l.014.172c.114 1.297.25 2.601.413 3.91.747.207 1.522.36 2.313.471 1.281.183 2.602.258 3.896.258 3.545 0 6.899-.553 8.754-.923.024.654.052 1.356.085 2.092-1.97.337-4.15.457-6.26.457" fill="#81719f"/><path d="m124.221 72.334-.034-.404.137-.162.001.002.162.135.032.414.002.009-.152.003-.148.003" fill="#796292"/><path d="M126.344 70.526h.004-.004zm-.02 0c-.724 0-1.418-.01-2.085-.03a61.593 61.593 0 0 1-5.869-.44c2.05.258 4.716.47 7.954.47zm-8.068-.486c-.02-.001-.037-.004-.057-.006l.057.006" fill="#8d7ca4"/><path d="M130.572 76.057zm-2.313-.47c-.163-1.31-.299-2.614-.413-3.911l-.014-.172a109.469 109.469 0 0 0 .427 4.082M118.021 70.16c-.003-.05-.006-.1-.007-.15l.007.15" fill="#ac8467"/><path d="M27.187 95.226s4.889-4.255 15.783-4.255c10.892 0 12.694 2.737 12.694 2.737s9.905-3.423 20.758-3.423c10.854 0 18.87 4.94 18.87 4.94z" fill="#3d405c"/><path d="M103.31 65.287s-3.067-.209-3.453 1.803l-.021.262a.798.798 0 0 0 .658.854l1.342.237c.339.058.66-.17.719-.509a.371.371 0 0 0-.289-.422l-1.06-.227s2.196-.384 2.103-1.998" fill="#f7c0ad"/><path d="M101.511 69.424h-.221a.423.423 0 0 1-.419-.472l.11-.917a.421.421 0 0 1 .838 0l.112.917a.424.424 0 0 1-.42.472" fill="#f7c0ad"/><path d="M102.643 69.422h-.243a.463.463 0 0 1-.461-.521l.12-1.01a.466.466 0 0 1 .925 0l.122 1.01a.464.464 0 0 1-.463.521" fill="#f7c0ad"/><path d="M103.649 69.437h-.22a.424.424 0 0 1-.42-.474l.11-.915a.423.423 0 0 1 .84 0l.109.915a.422.422 0 0 1-.42.474" fill="#f7c0ad"/><path d="M104.715 69.437h-.222a.424.424 0 0 1-.419-.474l.111-.915a.422.422 0 0 1 .838 0l.112.915a.426.426 0 0 1-.42.474" fill="#f7c0ad"/><path d="M127.01 26.721c-6.023.145-5.295-2.589-5.295-2.589 1.047-.348 1.761-.562 1.761-.562h8.438s1.121 3.006-4.903 3.151" fill="#f39f97"/><path d="M117.596 15.636c0 .21.152.845.152.845s.43 3.486 1.446 6.104c.133.348.383.633.754.633h1.78c.535 0 1.068-.082 1.575-.246 1.992-.638 6.322-2.082 7.297-3.834.047-.17.427-2.545.427-2.545.843-2.91 2.58-2.94 3.185-4.703.295-.857.18-3.342.18-3.342s-.876-6.217-7.77-6.217c-2.97 0-5.185 2.016-6.453 3.573a7.856 7.856 0 0 0-1.55 3.144c-.157.66-.327 1.395-.415 1.831-.036.186-.05.374-.042.561.011.171.015.212.018.256l.027.266c.046.417.103.735.103.735l-.08.27-.101.354c-.23.805-.533 1.996-.533 2.315" fill="#f7c0ad"/><path d="M118.688 7.906s6.55 1.068 14.835 6.752c2.044-1.707 4.639-10.574-3.213-13.172-6.18-2.044-11.523 2.79-11.622 6.42" fill="#f5b653"/><path d="M130.09 14.112c-.465 1.309-.713 2.355.037 2.675.564.243 1.907-.187 3.027-1.687.541-1.28-.064-2.592-.831-2.864-.768-.274-1.769.567-2.233 1.876" fill="#f7c0ad"/><path d="M130.228 12.192c-.235.653-3.464-.383-7.355-1.789-3.89-1.405-5.828-1.853-5.591-2.507.236-.653 2.555-1.265 6.447.14 3.889 1.406 6.737 3.502 6.499 4.156" fill="#f7c578"/><path d="M122.557 7.658s.463-5.586 6.321-6.53c1.195-.181 2.126.614 2.126.614s-6.542 1.503-7.275 6.294c-1.115.268-1.172-.378-1.172-.378" fill="#f7c578"/><path d="m114.903 67.23.381 1.334c.098.332.341.602.663.73.41.163.81.202 1.197.127l.36-.069.309.077c.277.068.569.036.825-.091.5-.095.896-.484.992-.986l.116-.595-3.28-.942z" fill="#f39f97"/><path d="M118.72 64.258s-2.007.68-3.142 1.446c-.39.262-.64.682-.703 1.146a.935.935 0 0 0 .767 1.045l2.336.406a2.041 2.041 0 0 0 2.163-1.071z" fill="#f7c0ad"/><path d="M134.276 34.916c-1.665 5.643-3.202 14.542-1.727 26.074.1.78.216 1.573.343 2.378a56.06 56.06 0 0 1-2.372.31 79.48 79.48 0 0 1-.342-2.382c-1.536-12.007.09-21.29 1.843-27.182 1.38-4.641 3.014-7.87 4.025-9.615.793.202 1.619.436 2.375.691-.867 1.423-2.672 4.731-4.145 9.726M119.572 24.697c-.52 4.695-2.162 20.425-2.618 35.866-.023.825-.044 1.648-.062 2.47a23.739 23.739 0 0 1-2.375-.721c.02-.846.044-1.697.07-2.548.452-14.18 1.865-28.436 2.481-34.15.844-.404 1.755-.707 2.504-.917" fill="#fedbbe"/><path d="M114.217 53.457c.947.416 2.287.898 4.046 1.281-.046.814-.09 1.624-.129 2.428-1.769-.357-3.187-.814-4.28-1.254.068-.45.135-.877.204-1.281.064-.372.117-.763.16-1.174M140.793 55.522c-5.192 1.42-9.633 2.076-13.374 2.255.018-.814.044-1.619.075-2.414 3.583-.188 7.956-.832 13.147-2.28l.01.224c.028.73.077 1.47.142 2.215M116.954 60.563c.328.09.671.176 1.033.26-.024.829-.044 1.645-.058 2.45-.36-.078-.706-.158-1.037-.24a23.739 23.739 0 0 1-2.375-.721c-.509-.185-.96-.368-1.356-.548.084-.859.174-1.71.267-2.533.311.16.696.34 1.159.533.639.262 1.426.541 2.367.799M141.55 61.46c-3.153.893-6.037 1.509-8.658 1.908a56.06 56.06 0 0 1-2.372.31c-1.08.119-2.115.2-3.1.246-.017-.727-.029-1.448-.033-2.163v-.246a48.47 48.47 0 0 0 2.79-.219 60.9 60.9 0 0 0 2.372-.306c2.584-.392 5.461-1.004 8.64-1.915.054.392.11.784.17 1.171.061.416.127.817.192 1.213" fill="#fedbbe"/><path d="M140.762 56.023c-.244.753-.41 1.227-.448 1.34-.01.028-2.889-1.249-6.275-3.29 0 0-.863-.748.113-1.74-.15-5.467.786-16.734 2.233-20.738 1.731-4.786 4.708-4.872 4.708-4.872 7.471 3.44 1.452 23.8-.331 29.3" fill="#b4a7cd"/><path d="m139.983 58-.202.238a1.463 1.463 0 0 1-.43.313c-3.994 1.798-10.347 4.67-14.644 6.614l-.4.18c-.71.322-1.362.614-1.92.868l-2.246 1.017-.545-1.138-.877-1.834a40.4 40.4 0 0 0 2.092-1.054c.606-.325 1.19-.657 1.752-.997 5.304-3.17 8.425-7.077 11.351-8.272 1.832-.75 3.945.073 5.061.556.65.28 1.106.813 1.312 1.42.237.686.159 1.468-.304 2.09" fill="#f7c0ad"/><path d="M38.22 92.55c0 .114-.427.205-.952.205-.529 0-.952-.091-.952-.206 0-.114.423-.207.952-.207.525 0 .952.093.952.207M47.743 93.128c0 .321-.388.58-.865.58-.48 0-.866-.259-.866-.58 0-.32.386-.579.866-.579.477 0 .865.26.865.579M68.653 93.814c0 .238-.34.432-.758.432-.419 0-.757-.194-.757-.432 0-.24.338-.433.757-.433s.758.194.758.433M80.773 92.334c0 .232-.318.42-.712.42-.397 0-.716-.188-.716-.42 0-.236.32-.424.716-.424.394 0 .712.188.712.424M87.05 93.286c0 .29-.456.528-1.017.528-.562 0-1.017-.238-1.017-.528 0-.293.455-.531 1.017-.531.561 0 1.017.238 1.017.53M70.514 92.228c0 .18-.203.321-.454.321s-.454-.141-.454-.32c0-.175.203-.319.454-.319.25 0 .454.144.454.318M60.168 93.814c0 .238-.359.432-.802.432-.442 0-.8-.194-.8-.432 0-.24.358-.433.8-.433.443 0 .802.194.802.433M52.505 94.03c0 .122-.252.216-.563.216-.311 0-.562-.094-.562-.215 0-.119.251-.217.562-.217.312 0 .563.098.563.217" fill="#22253d"/><path d="M128.416 130.903c-.08.977-.16 1.97-.235 2.969-1.016.285-2.106.393-3.177.393-1.69 0-3.33-.268-4.552-.539-.137-.956-.28-1.915-.425-2.87 2.098.572 6.114 1.273 8.389.047M127.856 138.713a184.49 184.49 0 0 0-.143 2.833c-.879.198-1.8.274-2.71.274-1.271 0-2.518-.151-3.578-.34-.096-.92-.202-1.857-.317-2.804 2 .432 4.807.758 6.748.037M147.167 131.071c-.072.96-.142 1.92-.209 2.877-1.11.228-2.287.317-3.444.317-1.813 0-3.582-.217-4.98-.459-.163-.924-.33-1.878-.504-2.85 2.458.516 6.538 1.044 9.137.115M146.704 138.501c-.04.977-.065 1.945-.072 2.904-1.038.301-2.161.415-3.262.415a20.47 20.47 0 0 1-3.54-.335l-.47-2.832c2.177.48 5.375.852 7.344-.152" fill="#d0c6df"/></svg>