<svg xmlns="http://www.w3.org/2000/svg" width="225.839" height="86.916" viewBox="0 0 169.379 65.187"><path d="m52.938 20.08 34.344 20.566v2.975L52.937 64.188 18.595 43.621v-2.975z" fill="#b2b2b2" fill-rule="evenodd"/><path d="M87.282 43.621v-2.975L52.938 20.081v44.106l34.343-20.566z" fill="#7c7c7c" fill-rule="evenodd"/><path d="m52.938 20.08 34.343 20.566-34.343 20.566-34.343-20.566z" fill="#414242" fill-rule="evenodd"/><path d="m52.938 15.32 34.344 20.566v2.975L52.937 59.427 18.595 38.86v-2.975z" fill="#b2b2b2" fill-rule="evenodd"/><path d="M87.282 38.861v-2.975L52.938 15.32v44.107L87.281 38.86z" fill="#7c7c7c" fill-rule="evenodd"/><path d="m52.938 15.32 34.343 20.566-34.343 20.566-34.343-20.566z" fill="#414242" fill-rule="evenodd"/><path d="m52.938 10.56 34.344 20.565V34.1L52.937 54.666 18.595 34.1v-2.976z" fill="#b2b2b2" fill-rule="evenodd"/><path d="M87.282 34.1v-2.975L52.938 10.56v44.106L87.281 34.1z" fill="#7c7c7c" fill-rule="evenodd"/><path d="m52.938 10.56 34.343 20.565-34.343 20.566-34.343-20.566z" fill="#414242" fill-rule="evenodd"/><path d="m52.938 5.8 34.344 20.565v2.975L52.937 49.906 18.595 29.34v-2.975z" fill="#b2b2b2" fill-rule="evenodd"/><path d="M87.282 29.34v-2.975L52.938 5.8v44.106L87.281 29.34z" fill="#7c7c7c" fill-rule="evenodd"/><path d="m52.938 5.8 34.343 20.565-34.343 20.566-34.343-20.566z" fill="#414242" fill-rule="evenodd"/><path d="m52.938 1 34.344 20.566v2.975L52.937 45.106 18.595 24.541v-2.975z" fill="#b2b2b2" fill-rule="evenodd"/><path d="M87.282 24.54v-2.974L52.938 1v44.106l34.343-20.565z" fill="#7c7c7c" fill-rule="evenodd"/><path d="m52.938 1 34.343 20.566L52.938 42.13 18.595 21.566z" fill="#315172" fill-rule="evenodd"/><path d="M43.31 6.997v15.69h-4.437v-12.26h-2.914v-3.43zm18.783 3.34c1.494 0 2.686.448 3.575 1.345.889.896 1.333 2.249 1.333 4.057v6.948h-4.258v-6.254c0-.851-.16-1.479-.482-1.882-.322-.404-.773-.605-1.356-.605-.643 0-1.158.223-1.547.672-.388.448-.582 1.128-.582 2.04v6.029h-4.259v-6.254c0-1.658-.613-2.487-1.838-2.487-.657 0-1.18.223-1.569.672-.388.448-.582 1.128-.582 2.04v6.029h-4.26V10.539h4.058v1.277a4.272 4.272 0 0 1 1.602-1.11 5.441 5.441 0 0 1 2.029-.37c.851 0 1.613.158 2.286.472a3.883 3.883 0 0 1 1.636 1.434 4.71 4.71 0 0 1 1.816-1.412 5.786 5.786 0 0 1 2.398-.493zm12.675-.616v1.759H68.66v-1.39l2.936-2.745c.284-.27.474-.5.572-.69a1.26 1.26 0 0 0 .145-.577c0-.254-.086-.452-.258-.594-.171-.142-.422-.212-.75-.212-.292 0-.559.065-.802.195-.242.131-.442.32-.6.567l-1.647-.92a3.223 3.223 0 0 1 1.29-1.199c.552-.291 1.206-.437 1.96-.437.598 0 1.127.098 1.586.292.46.194.818.472 1.076.835.258.362.386.782.386 1.26 0 .426-.09.828-.274 1.205-.183.377-.536.805-1.059 1.283l-1.48 1.368z" fill="#fff"/><path stroke-width=".24" stroke-miterlimit="22.926" fill="none" stroke="#121c2c" d="M14.564 21.475H8.629M14.564 43.496H8.629M11.596 21.475v22.02"/><path d="M1.96 32.163c.379 0 .66.073.841.22a.732.732 0 0 1 .272.601c0 .162-.039.308-.118.438a.825.825 0 0 1-.357.311 1.343 1.343 0 0 1-.588.116c-.192 0-.378-.028-.557-.083A1.37 1.37 0 0 1 1 33.538l.211-.388c.1.082.22.146.36.194.139.047.283.07.431.07.177 0 .316-.036.417-.109a.352.352 0 0 0 .152-.301.348.348 0 0 0-.164-.313c-.108-.07-.295-.106-.558-.106h-.65l.139-1.463h1.578v.419H1.76l-.057.622zm2.488 1.674c-.212 0-.403-.045-.572-.134a.988.988 0 0 1-.395-.375 1.047 1.047 0 0 1-.142-.543c0-.203.047-.383.142-.541a.993.993 0 0 1 .393-.373c.168-.09.36-.134.574-.134.202 0 .38.04.532.122a.8.8 0 0 1 .344.354l-.369.215a.586.586 0 0 0-.51-.284.607.607 0 0 0-.446.174.626.626 0 0 0-.177.467c0 .194.059.35.175.467a.606.606 0 0 0 .447.174.586.586 0 0 0 .51-.284l.37.215a.832.832 0 0 1-.348.355 1.087 1.087 0 0 1-.528.125zm3.879-2.1c.258 0 .463.075.614.224.151.15.227.375.227.674v1.175h-.48v-1.114c0-.179-.04-.314-.12-.405-.079-.09-.193-.136-.341-.136a.501.501 0 0 0-.388.16c-.097.106-.146.257-.146.455v1.04h-.48v-1.114c0-.179-.04-.314-.119-.405-.08-.09-.193-.136-.342-.136a.502.502 0 0 0-.39.158c-.095.105-.143.257-.143.457v1.04h-.48v-2.05h.457v.26a.747.747 0 0 1 .288-.21.975.975 0 0 1 .384-.073c.153 0 .29.028.409.086a.667.667 0 0 1 .282.255.854.854 0 0 1 .326-.251c.133-.06.28-.09.442-.09" fill="#121c2c"/><clipPath id="a"><path transform="matrix(1 0 0 -1 1 64.187)" d="M150.854 63.048h16.525V.138h-16.525z" fill-rule="evenodd"/></clipPath><g clip-path="url(#a)" fill="#fff"><path d="M170.144-6.687 151.381 4.635l-1.113-2.007 18.764-11.322z"/><path d="m170.144.245-18.763 11.322-1.113-2.008 18.764-11.321 1.112 2.007M170.144 7.177c-6.254 3.775-12.509 7.548-18.763 11.322l-1.113-2.007L169.032 5.17c.37.67.741 1.339 1.112 2.007M170.144 14.11l-18.763 11.322-1.113-2.007 18.764-11.323 1.112 2.008M170.144 21.042l-18.763 11.322-1.113-2.007 18.764-11.322 1.112 2.007M170.144 27.974l-18.763 11.322-1.113-2.007 18.764-11.322c.37.67.741 1.338 1.112 2.007M170.144 34.907l-18.763 11.321-1.113-2.007 18.764-11.322 1.112 2.008M170.144 41.839 151.381 53.16l-1.113-2.008 18.764-11.321 1.112 2.007M170.144 48.771l-18.763 11.322-1.113-2.007 18.764-11.322 1.112 2.007M170.144 55.704l-18.763 11.321-1.113-2.007 18.764-11.322 1.112 2.008" fill-rule="evenodd"/><path d="m170.144 62.636-18.763 11.322-1.113-2.008 18.764-11.322z"/></g><path d="M118.672 4.989h40.419c.564 0 1.025.461 1.025 1.025v53.16c0 .563-.461 1.025-1.025 1.025h-40.419a1.028 1.028 0 0 1-1.025-1.026V6.013c0-.563.462-1.024 1.025-1.024" fill="#315172" fill-rule="evenodd"/><path d="M129.264 24.933c-.32 3.1 1.101 5.487 4.544 5.487h3.505l-.46 4.472a2.008 2.008 0 0 1-2.003 1.807h-4.566c-.59 0-1.1-.226-1.495-.665a1.948 1.948 0 0 1-.509-1.555zM141.331 23.203h2.574c3.957 0 5.285-2.048 5.537-4.494l-.924 8.965a2.009 2.009 0 0 1-2.003 1.808h-5.735a.452.452 0 0 1-.347-.154.453.453 0 0 1-.118-.361l.551-5.345a.466.466 0 0 1 .465-.42" fill="#fff" fill-rule="evenodd"/><path d="M131.282 23.203h8.171c.137 0 .255.052.347.154a.453.453 0 0 1 .118.361l-.55 5.344a.466.466 0 0 1-.466.42h-6.22c-2.35 0-3.97 1.038-4.188 3.148l.785-7.62a2.008 2.008 0 0 1 2.003-1.807M143.41 15.985h4.07c.59 0 1.1.227 1.495.665.395.439.568.969.508 1.555l-.903 8.765c.342-3.322-.79-4.706-3.891-4.706h-1.83a.453.453 0 0 1-.347-.154.454.454 0 0 1-.118-.361l.551-5.344a.466.466 0 0 1 .465-.42M132.083 15.985h9.456c.137 0 .256.053.347.154a.454.454 0 0 1 .118.361l-.55 5.345a.466.466 0 0 1-.466.42h-9.823c-.667 0-1.189.245-1.546.835l.46-5.307c.09-1.033.967-1.808 2.004-1.808" fill="#fff" fill-rule="evenodd"/><path d="M133.892 46.553v1.155h-4.01v-.912l1.927-1.803c.186-.177.312-.328.376-.453a.829.829 0 0 0 .095-.379.477.477 0 0 0-.17-.39c-.112-.093-.276-.14-.492-.14a1.058 1.058 0 0 0-.92.5l-1.082-.603c.201-.333.483-.596.846-.787.364-.191.793-.287 1.288-.287.393 0 .74.063 1.042.191.301.128.537.31.706.548.17.238.254.514.254.828 0 .28-.06.544-.18.792-.12.247-.352.528-.696.842l-.971.898zm2.355-2.12c.72 0 1.254.147 1.6.442.346.294.52.687.52 1.178 0 .318-.083.612-.247.879-.165.267-.415.48-.751.64-.336.16-.752.24-1.247.24-.364 0-.723-.045-1.079-.133a3.1 3.1 0 0 1-.916-.376l.523-1.096a2.606 2.606 0 0 0 1.428.427c.25 0 .45-.048.599-.144a.451.451 0 0 0 .225-.401.428.428 0 0 0-.221-.39c-.147-.088-.407-.132-.78-.132h-1.399l.258-3.01h3.282v1.126h-2.075l-.067.75zm4.547 1.877-.412.42v.978h-1.398v-5.46h1.398v2.863l1.428-1.392h1.656l-1.656 1.708 1.796 2.281h-1.693zm7.352-2.59v3.26c0 .74-.2 1.296-.603 1.667-.402.37-.981.555-1.737.555-.392 0-.76-.044-1.104-.132a2.613 2.613 0 0 1-.875-.39l.507-.979a1.8 1.8 0 0 0 .615.313c.248.076.492.114.732.114.368 0 .638-.081.81-.243.171-.162.257-.402.257-.721v-.133c-.27.314-.665.471-1.184.471-.354 0-.68-.08-.98-.239a1.82 1.82 0 0 1-.713-.677 1.915 1.915 0 0 1-.265-1.012c0-.378.088-.712.265-1.004.176-.292.414-.518.713-.678.3-.16.626-.239.98-.239.568 0 .985.185 1.25.552v-.486zm-2.251 2.67a.88.88 0 0 0 .621-.227.765.765 0 0 0 .247-.589.76.76 0 0 0-.243-.585.886.886 0 0 0-.625-.224.899.899 0 0 0-.63.224.755.755 0 0 0-.246.585c0 .24.083.437.25.589a.892.892 0 0 0 .626.228" fill="#fff"/><path d="M112.964 44.674c6.672 0 12.08-5.408 12.08-12.08s-5.408-12.08-12.08-12.08-12.08 5.408-12.08 12.08 5.408 12.08 12.08 12.08" fill="#fff" fill-rule="evenodd"/><path d="M108.253 31.073c1.461 0 2.542.298 3.243.895.7.596 1.05 1.391 1.05 2.385 0 .646-.166 1.24-.499 1.782-.332.541-.84.973-1.52 1.296-.681.324-1.524.485-2.527.485-.736 0-1.464-.09-2.184-.268-.721-.18-1.34-.433-1.857-.76l1.059-2.222c.417.278.877.492 1.38.641.501.15 1.005.224 1.512.224.507 0 .912-.097 1.215-.291.304-.194.455-.465.455-.812a.867.867 0 0 0-.447-.79c-.298-.18-.825-.269-1.58-.269h-2.833l.522-6.097h6.649v2.28h-4.205l-.134 1.521zm10.48 6.634-1.445-2.117-1.55 2.117h-3.072l3.071-4.04-2.981-4.04h3.19l1.43 2.043 1.492-2.043h2.997l-2.982 3.936 3.086 4.144z" fill="#315172"/></svg>