<svg xmlns="http://www.w3.org/2000/svg" width="272.233" height="240.939" viewBox="0 0 204.175 180.704"><path d="M120.236 1 90.352 19.033v-7.84l16.892-10.191zm20.363 0h12.992L90.352 39.159v-7.84zm33.355 0h12.993L90.352 59.285v-7.84zm29.22 2.495v7.84L90.353 79.409v-7.84zm0 20.126v7.84L90.353 99.535v-7.84zm0 20.126v7.84L90.353 119.66v-7.84zm0 20.126v7.84L90.353 139.786v-7.84zm0 20.126v7.84L90.353 159.912v-7.84zm0 20.126v7.84L90.909 179.702h-.556V172.2zm0 20.125v7.84l-78.911 47.613H111.27zm0 20.126v7.84l-45.556 27.487h-12.992zm0 20.126v7.84l-12.2 7.361H177.98z" fill="#fff"/><path d="M90.352 1c49.347 0 89.351 40.005 89.351 89.352s-40.004 89.351-89.351 89.351c-49.348 0-89.351-40.004-89.351-89.351S41.005 1.001 90.352 1.001" fill="#fff" fill-rule="evenodd"/><path d="M90.352 176.344c47.492 0 85.992-38.5 85.992-85.992 0-47.492-38.5-85.992-85.992-85.992C42.86 4.36 4.36 42.86 4.36 90.352c0 47.492 38.5 85.992 85.992 85.992" fill="#f7941d" fill-rule="evenodd"/><path d="M173.185 113.512H7.519c10.112 36.242 43.366 62.832 82.833 62.832s72.72-26.59 82.833-62.832" fill="#315172" fill-rule="evenodd"/><path d="M118.378 23.36c-.091-1.123 3.46-1.81 3.46-1.81l1.688 2.382s-3.429.373-4.688-.125l-.46.388z" fill="#f5b653"/><path d="M121.84 22.383s-3.553.687-3.462 1.812c.09 1.122 5.148.572 5.148.572z" fill="#fce2bd"/><path d="m131.62 62.296-9.02 1.137-.663-2.126 12.22-5.521z" fill="#f7a28f"/><path d="M33.914 121.44v18.338h42.198c2.598 0 4.84-2.142 5.884-5.242.4-1.191.626-2.522.626-3.927 0-5.065-2.914-9.168-6.51-9.168z" fill="#667281"/><path d="M27.404 130.61c0 5.063 2.914 9.168 6.51 9.168 2.597 0 4.839-2.142 5.885-5.242.4-1.191.624-2.522.624-3.927 0-5.065-2.914-9.168-6.51-9.168-3.595 0-6.51 4.103-6.51 9.168" fill="#868f9c"/><path d="M28.037 130.61c0 4.568 2.635 8.277 5.877 8.277.176 0 .354-.016.531-.037-2.987-.382-5.338-3.928-5.338-8.24 0-4.317 2.35-7.857 5.338-8.24a4.293 4.293 0 0 0-.531-.034c-3.242 0-5.877 3.702-5.877 8.273" fill="#48505d"/><path d="M29.107 130.61c0 4.312 2.35 7.858 5.338 8.242 2.994-.377 5.345-3.93 5.345-8.243 0-4.316-2.35-7.86-5.345-8.24-2.987.384-5.338 3.924-5.338 8.24" fill="#667281"/><path d="m121.937 24.395.808 3.913a.571.571 0 0 0 .81.399l.19-.093z" fill="#f7c0ad"/><path d="m57.631 124.75 80.267-85.727 1.202 1.923-80.052 85.462c-.256.211-.754-.012-1.136-.479-.378-.461-.503-.986-.28-1.18" fill="#7891c6"/><path d="m115.09 144.108.205 1.977c.153 1.51 0 3.037-.456 4.484h-13.11s-1.072-1.899 0-2.95c1.924-1.888 5.897-3.511 5.897-3.511z" fill="#33354c"/><path d="M121.815 24.114c2.397 5.53 2.968 7.665 4.745 7.387 5.176-.81 10.926-4.885 9.541-13.141-.994-5.943-5.637-9.595-10.444-7.511-4.806 2.083-6.24 7.737-3.842 13.265" fill="#f7c0ad"/><path d="m137.389 26.299-.625-2.675a3.283 3.283 0 0 0-3.311-2.532l-.288.011c-2.965.154-5.071 2.96-4.421 5.86l.254 1.137z" fill="#f7a28f"/><path d="m142.121 69.6.563 3.17.498 2.798.298 1.686 4.636 26.072.85 4.776h12.454c-.324-4.668.044-10.745.508-16.956.39-5.245.849-10.59 1.023-15.262.059-1.624.083-3.165.059-4.594-.03-1.817-.143-3.452-.37-4.838z" fill="#b4a7cd"/><path d="m176.868 139.382.406.25c1.568.956 2.518 2.686 2.423 4.52l-.009.143-6.635 6.211h-3.764l-.024-.137a3.293 3.293 0 0 1 .55-2.523c.754-1.05 1.685-2.922 1.293-5.43z" fill="#33354c"/><path d="m105.869 101.703 6.813 2.082 6.298 1.926c4.13-4.231 7.795-7.584 11.064-10.323 6.184-5.183 10.945-8.169 14.746-10.776 3.559-2.443 6.273-4.554 8.515-7.814.313-.45.615-.923.909-1.423.123-.209.241-.422.362-.639a8.027 8.027 0 0 0 .656-1.587c.961-3.214.011-6.598.011-6.598l-22.686-.547c-.743.723-1.464 1.435-2.162 2.136-.611.613-1.2 1.215-1.774 1.812-11.099 11.517-16.317 20.571-22.752 31.751" fill="#b4a7cd"/><path d="M123.269 32.566c-.163 8.528 3.137 12.926 5.855 18.644.149.383.297.75.43 1.119.362.99.66 1.924.893 2.823.057.235.12.474.17.71.177.77.311 1.52.41 2.228.03.235.056.468.079.695a19.5 19.5 0 0 1 .106 2.173c-.014.864-.084 1.67-.197 2.412-.122.766-.27 1.431-.448 2.04a13.64 13.64 0 0 1-.296.913c-.163.46-.172.94-.052 1.38.087.29.228.575.419.815.206.247.453.452.752.6.424.221.856.425 1.287.617.468.219.935.417 1.408.609.736.31 1.472.587 2.208.835 1.227.418 2.456.764 3.676 1.047 1.21.283 2.413.51 3.596.68 4.976.73 9.584.532 13.159.079a57.31 57.31 0 0 0 1.344-.186c.44-.07.85-.134 1.246-.204.389-.072.764-.142 1.117-.212.348-.072.672-.142.98-.206a3.252 3.252 0 0 0 1.599-.885 3.31 3.31 0 0 0 .961-2.514 51.605 51.605 0 0 0-.354-4.006 58.51 58.51 0 0 0-.36-2.406 63.64 63.64 0 0 0-1.368-6.138 71.745 71.745 0 0 0-.678-2.307c-1.153-3.716-2.238-6.037-2.238-6.037s-8.146-17.42-11.48-20.664c-2.946-2.852-10.54-3.785-16.402-3.164-4.367.468-7.736 4.112-7.822 8.51" fill="#f5b653"/><path d="M131.006 63.42a62.5 62.5 0 0 0 8.658 2.202c3.879.707 7.396.956 10.447.956 2.025 0 3.846-.113 5.423-.276 3.54-.36 6.293-1.004 8.083-1.53a58.51 58.51 0 0 0-.36-2.406c-1.671.503-4.445 1.196-8.078 1.559-4.055.408-9.802.46-16.626-.958a60.699 60.699 0 0 1-7.34-2.01c-.015.865-.085 1.67-.198 2.413zM129.555 52.33c.362.986.656 1.926.89 2.822 6.965 2.178 13.168 2.836 18.12 2.836 2.027 0 3.848-.11 5.42-.273 3.429-.35 6.113-.968 7.904-1.484a58.65 58.65 0 0 0-.677-2.307c-1.699.484-4.285 1.085-7.58 1.413-5.459.548-13.994.446-24.077-3.006" fill="#fad49b"/><path d="M124.33 41.122c2.5 6.117 7.852 9.735 12.037 8.184l.176-.069c4.208-1.719 5.567-8.143 3.034-14.346a17.083 17.083 0 0 0-2.578-4.362c-2.788-3.398-6.55-5.016-9.636-3.754-4.21 1.72-5.568 8.143-3.032 14.347M105.869 101.703l.798 19.302.085 2.053.299 7.193.086 2.053.489 11.803s2.744.92 4.728.92c1.983 0 2.736-.92 2.736-.92.179-3.711.525-7.347.955-10.755a174.333 174.333 0 0 1 2.747-15.715 29.56 29.56 0 0 0 .188-11.924zM150.202 112.05c.296.53.635 1.037 1.02 1.51.271.328.563.69.877 1.08 1.413 2.073 3.122 4.803 4.934 7.762.388.63.781 1.27 1.174 1.915 1.266 2.074 2.563 4.213 3.83 6.276.397.64.786 1.273 1.174 1.897 2.744 4.417 5.26 8.26 6.904 10.065a1.38 1.38 0 0 0 1.235.432c3.83-.614 5.596-2.144 6.339-3.077a1.16 1.16 0 0 0 .046-1.38c-1.78-2.615-3.152-5.665-4.442-8.915-.248-.623-.492-1.252-.733-1.886-.894-2.336-1.774-4.75-2.76-7.165a85.01 85.01 0 0 0-.839-2c-.899-2.07-1.898-4.125-3.067-6.111-1.982-3.374-4.474-4.35-4.474-4.35h-12.455c.14 1.394.564 2.734 1.237 3.947" fill="#b4a7cd"/><path d="m123.558 33.368.065.204c1.857 5.512 4.93 11.345 6.682 14.476a85.643 85.643 0 0 0 1.337 2.314l2.347-.238 5.91-.597s-.187-.971-.586-2.562c-.08-.319-.155-.611-.236-.922-.883-3.348-2.512-8.621-5.042-13.58a45.308 45.308 0 0 0-1.38-2.512c-.657-1.107-1.97-2.234-4.317-2.263-3.913-.05-5.646 2.715-4.78 5.68" fill="#f7c0ad"/><path d="m113.854 63.541 2.273 3.114s8.29-3.25 15.043-6.994c2.428-1.344 4.664-2.759 6.235-4.105.284-.241.538-.466.772-.7l.22-.226a4.66 4.66 0 0 0 .814-1.198c.892-1.812.686-3.905.686-3.905s-3.144-2.152-6.703-1.105c-3.554 1.047-7.136 7.155-19.34 15.12" fill="#f7c0ad"/><path d="M110.98 66.348a20.054 20.054 0 0 1 3.154-3.28l.404-.335a.996.996 0 0 1 1.42.154c.545.696 1.283 1.727 1.61 2.572a.686.686 0 0 1-.447.9l-.991.298-.19.969a3.674 3.674 0 0 1-2.181 3.033 2.26 2.26 0 0 1-2.477-.437 2.913 2.913 0 0 1-.302-3.874" fill="#7891c6"/><path d="M157.033 122.402c.388.63.781 1.27 1.174 1.915 6.875-.146 10.135-2.245 11.594-3.753a85.01 85.01 0 0 0-.84-2c-.583.887-3.226 3.937-11.928 3.838M162.038 130.593c.396.64.785 1.273 1.173 1.897 5.305-.196 8.362-1.577 10.082-2.875-.248-.623-.492-1.252-.733-1.886-1.352 1.194-4.336 2.843-10.522 2.864M106.667 121.005l.085 2.053c2.798.902 5.068 1.225 6.887 1.225 1.67 0 2.962-.273 3.923-.615.15-.812.302-1.59.452-2.336-1.127.705-4.463 2.063-11.347-.327M107.05 130.251l.087 2.053c2.769.887 5.017 1.207 6.824 1.207.775 0 1.47-.06 2.084-.159.088-.678.176-1.35.268-2.01-1.832.412-4.796.452-9.262-1.09" fill="#d0c6df"/><path d="M123.34 23.305c0 1.333.762 2.414 1.701 2.414.94 0 1.704-1.08 1.704-2.414 0-1.333-.764-2.413-1.704-2.413-.939 0-1.7 1.08-1.7 2.413" fill="#f7c0ad"/><path d="M125.041 25.216c.757 0 1.372-.857 1.372-1.911s-.615-1.91-1.372-1.91l-.08.08.08.08c.67 0 1.212.786 1.212 1.75 0 .966-.543 1.75-1.212 1.75a.936.936 0 0 1-.592-.225l-.114.011.013.113c.208.171.449.262.693.262" fill="#f7a28f"/><path d="M148.117 103.334c.01-.206-.63-9.608-1.8-17.476 5.041-2.28 9.584-7.07 11.454-9.209a39.94 39.94 0 0 0 5.18-.765c.043-1.193.069-2.34.069-3.431 0-.396-.003-.783-.01-1.163l-.001.002a3.23 3.23 0 0 1-1.064.715l-.026.01-.003.001-.014.007-.013.005-.003.001a3.499 3.499 0 0 1-.476.146c-.027.006-.053.01-.078.017a50.91 50.91 0 0 1-1.991.396l-.027.005c-.114.02-.227.04-.344.059-.254.043-.515.086-.785.128a57.31 57.31 0 0 1-1.46.203c-.48.06-.978.116-1.494.165a7.867 7.867 0 0 1-.655 1.586 22.445 22.445 0 0 1-1.271 2.061c-2.242 3.261-4.956 5.372-8.515 7.815z" fill="#9f8bb8"/><path d="M153.305 76.798c.313-.45.615-.923.909-1.423.123-.209.241-.422.362-.639a7.867 7.867 0 0 0 .655-1.586c-1.501.147-3.146.24-4.896.24a47.226 47.226 0 0 1-7.651-.62 43.326 43.326 0 0 1-2.838-.571 38.236 38.236 0 0 1-4.54-1.37 37.1 37.1 0 0 1-3.918-1.707 2.198 2.198 0 0 1-.66-.503 5.415 5.415 0 0 1-.09-.1 2.356 2.356 0 0 1-.243-.38c-.611.614-1.2 1.216-1.774 1.813 5.178 2.854 10.098 4.6 14.56 5.616 3.73.851 7.143 1.188 10.124 1.23" fill="#9f8bb8"/><path d="M150.335 73.39c1.75 0 3.395-.093 4.896-.24.516-.05 1.013-.105 1.493-.165a57.31 57.31 0 0 0 1.344-.186c.039-.006.078-.013.117-.017a51.94 51.94 0 0 1-7.872.605c-1.533 0-3.146-.072-4.815-.241 1.676.172 3.297.244 4.837.244zm8.635-.736c.117-.02.23-.038.344-.06.01 0 .019-.002.027-.004-.122.02-.245.043-.37.064zm-19.124-.455zm21.486-.005c.025-.006.051-.01.078-.017a3.499 3.499 0 0 0-.003 0c-.026.006-.05.01-.075.017zm.557-.164.013-.005-.013.005zm.027-.012.003-.001-.003.001zm.029-.01" fill="#c0947f"/><path d="M57.3 125.55c0 .589.475 1.061 1.063 1.061h23.635v.085a12.18 12.18 0 0 1 .624 3.913c0 .32-.014.633-.037.942a.987.987 0 0 0 .475.122 1.06 1.06 0 0 0 1.061-1.064v-5.06c0-.58-.474-1.062-1.061-1.062H58.363c-.588 0-1.062.481-1.062 1.062" fill="#7891c6"/><path d="M30.975 130.61c0 1.395.8 2.529 1.792 2.529.998 0 1.798-1.134 1.798-2.53 0-1.293-.687-2.363-1.586-2.504l-.212-.022c-.992 0-1.792 1.132-1.792 2.526" fill="#cad4e9"/><path d="M32.767 133.139h1.147c.99 0 1.791-1.134 1.791-2.53 0-1.394-.8-2.526-1.791-2.526l-.12.016h-.815c.9.147 1.586 1.217 1.586 2.51 0 1.396-.8 2.53-1.798 2.53" fill="#7891c6"/><path d="M32.115 131.657c.578 0 1.048-.47 1.048-1.048v-4.008h25.2a1.047 1.047 0 1 0 0-2.095H32.115c-.578 0-1.045.468-1.045 1.048v5.055c0 .578.467 1.048 1.045 1.048" fill="#7891c6"/><path d="M128.865 47.887c.5.072.98.126 1.44.161.989.078 1.886.078 2.7.023 3.274-.23 5.204-1.366 6.072-2.028.372-.286.547-.484.547-.484-1.19-4.87-2.593-8.966-4.162-12.08a26.225 26.225 0 0 0-1.088-1.954c-2.668-4.322-5.743-5.908-9.01-3.837-5.725 3.628-1.564 12.354 3.501 20.199" fill="#c3b7d7"/><path d="M131.208 60.383a16.309 16.309 0 0 0-.03-.725c-.004 0-.005.002-.008.003.019.246.032.486.038.722" fill="#f49075"/><path d="m132.677 69.735.212-5.722a61.858 61.858 0 0 1-1.883-.593c-.12.746-.266 1.394-.439 1.99a13.64 13.64 0 0 1-.296.913 2.31 2.31 0 0 0-.052 1.38 2.316 2.316 0 0 0 .508.916c.187.201.406.372.663.5.424.22.856.424 1.287.616zm.608-8.11 3.499-4.84c-.248-.05-.495-.103-.744-.156-1.23.893-2.683 1.796-4.233 2.676a38.693 38.693 0 0 1-.31.174l-.1.056c-.073.042-.146.082-.22.123.016.246.026.487.03.725.007.195.009.386.005.575.699.238 1.39.46 2.073.667" fill="#f29e48"/><path d="m132.889 64.013.07-1.937.326-.45a64.696 64.696 0 0 1-2.073-.668 18.058 18.058 0 0 1-.206 2.462c.635.21 1.262.407 1.883.593M136.784 56.784l1.393-1.927a1.856 1.856 0 0 1-.044.043c-.014.012-.027.027-.04.04l-.01.008-.028.028-.032.03c-.002 0-.002.003-.004.004a16.7 16.7 0 0 1-.6.538c-.417.357-.88.719-1.38 1.081.25.053.497.105.745.155" fill="#f5b57e"/><path d="m131.396 59.535.1-.056c-.033.02-.066.037-.1.056zm.39-.219.02-.011a.285.285 0 0 0-.02.011zm6.233-4.306c.002-.001.002-.003.004-.003-.002 0-.002.002-.004.003zm.036-.034.028-.028-.028.028zm.038-.036c.013-.013.026-.028.04-.04-.014.012-.027.027-.04.04zm.04-.04" fill="#f4a88c"/><path d="M130.727 68.62c-.1-.111-.187-.23-.263-.356.052.089.11.173.174.254.029.034.059.068.09.101" fill="#cc8668"/><path d="M136.563 19.058s-7.578 3.241-15.77 3.6c-2.567-5.469-1.492-11.81 5.735-13.074 7.485-1.31 10.035 5.644 10.035 9.474" fill="#f5b653"/><path d="m140.641 43.478.004-.017c-.002.006-.002.013-.004.017zm.01-.05c.001-.015.005-.03.008-.044-.003.014-.007.029-.008.043zm.011-.063.007-.042-.007.042zm.01-.059zm.01-.054c.408-2.456.093-5.355-1.047-8.216 1.14 2.861 1.455 5.76 1.046 8.216zm-1.048-8.216zm-.03-.078c-.01-.022-.02-.045-.028-.067l.027.067" fill="#c0947f"/><path d="M139.302 46.922c.643-.966 1.095-2.137 1.34-3.444 0-.005 0-.011.003-.017.001-.012.004-.022.006-.034.001-.014.005-.029.008-.043a.08.08 0 0 1 .003-.02l.007-.04c0-.007.003-.012.003-.018l.01-.051v-.003c.408-2.456.092-5.355-1.047-8.216h-.001a.958.958 0 0 0-.026-.065l-.005-.013c-.009-.022-.019-.045-.026-.067a17.083 17.083 0 0 0-2.578-4.362c3.87 8.288 2.625 10.433 2.625 10.433l-4.162-7.482c1.569 3.113 2.972 7.209 4.162 12.079 0 0-.175.198-.547.484.02.076.04.15.058.225 0 .003.002.007.004.011.003.014.006.029.01.041a.354.354 0 0 0 .004.018c.003.013.007.027.012.04v.011c.046.174.09.35.137.533" fill="#9f8bb8"/><path d="m139.302 46.922-.136-.533c.048.184.093.363.136.533zm-.137-.544c-.005-.013-.009-.027-.012-.04.003.013.007.027.012.04zm-.017-.058-.01-.04.01.04zm-.013-.052" fill="#c098aa"/><path d="M33.914 139.778h42.198c2.598 0 4.84-2.142 5.884-5.242H39.8c-1.046 3.1-3.288 5.242-5.885 5.242" fill="#57616f"/><path d="M82.698 61.87V78.5H24.976V65.366l27.749-25.949c2.683-2.542 4.483-4.713 5.401-6.513.918-1.8 1.377-3.62 1.377-5.455 0-2.4-.812-4.272-2.436-5.613-1.624-1.342-3.99-2.013-7.096-2.013-2.753 0-5.278.618-7.573 1.854-2.294 1.235-4.183 3.018-5.666 5.348l-15.57-8.684c2.896-4.802 6.956-8.58 12.18-11.333 5.226-2.754 11.404-4.13 18.536-4.13 5.648 0 10.644.917 14.986 2.753 4.343 1.836 7.732 4.466 10.168 7.89 2.436 3.425 3.654 7.397 3.654 11.916 0 4.024-.865 7.82-2.595 11.385-1.73 3.566-5.066 7.608-10.009 12.127l-13.98 12.922z" fill="#315172"/></svg>