<svg xmlns="http://www.w3.org/2000/svg" width="240.939" height="240.939" viewBox="0 0 180.704 180.704"><path d="M90.352 1c49.347 0 89.351 40.005 89.351 89.352s-40.004 89.351-89.351 89.351c-49.348 0-89.351-40.004-89.351-89.351S41.005 1.001 90.352 1.001" fill="#fff" fill-rule="evenodd"/><path d="M90.352 176.344c47.492 0 85.992-38.5 85.992-85.992 0-47.492-38.5-85.992-85.992-85.992C42.86 4.36 4.36 42.86 4.36 90.352c0 47.492 38.5 85.992 85.992 85.992" fill="#f7941d" fill-rule="evenodd"/><path d="M173.185 113.512H7.519c10.112 36.242 43.366 62.832 82.833 62.832s72.72-26.59 82.833-62.832" fill="#315172" fill-rule="evenodd"/><path d="M51.802 4.36V78.5h-20.97V20.565H17.063V4.36z" fill="#315172"/><path d="m37.44 139.245-.345-.043a1.367 1.367 0 0 1-.977-1.666l4.775-18.342a1.367 1.367 0 0 1 2.644.69l-4.774 18.34a1.368 1.368 0 0 1-1.323 1.02" fill="#576a94"/><path d="M115.298 26.77s-2.876.767-3.464 5.823c-.491 4.228 1.688 12.866 3.089 18.153-.722 1.188.292 1.72.292 1.72 3.763 1.21 6.42.33 6.42.33s2.998-24.132-6.337-26.026" fill="#b4a7cd"/><path d="M115.824 52.654c-4.311 3.015-6.069 7.295-12.515 12.633l2.124 2.52s9.754-7.286 15.304-11.748c.907-.731.898-3.263.898-3.263s-3.943-1.445-5.81-.142" fill="#f7c0ad"/><path d="M105.435 67.807s-.184.528-.47 1.062H100.3c-.13-.428-.13-.896.014-1.34.072-.226.157-.447.253-.643.11-.225.237-.41.378-.517 1.343-1.027 2.367-1.082 2.367-1.082l1.35 1.599z" fill="#f39f97"/><path d="M146.777 146.34s.95.938 1.04 2.443c.09 1.506-.404 2.567-.404 2.567h-11.03c-.64-1.001-.19-2.335.925-2.745 1.52-.566 2.388-1.39 3.3-2.265z" fill="#41376f"/><path d="M131.38 71.102c-.9 14.317-4.076 30.951-4.556 33.396l-.057.307h-11.186s-3.713-30.008-1.156-41.727h17.184c.036 2.502-.052 5.22-.23 8.024" fill="#9c8fc0"/><path d="M123.476 23.572h8.437c-.935-1.984-.728-13.994-.728-13.994h-6.977z" fill="#f39f97"/><path d="M144.513 104.498h-11.644s-1.774-6.395-3.721-13.582c-1.933-7.126-4.03-15.029-4.746-18.237l-.033-.348-.032-.414a67.956 67.956 0 0 1-.204-4.185c-.06-2.93.068-4.959.068-4.959h15.375s.725.953 1.605 3.013c1.246 2.928 1.909 6.064 2.028 9.241l.013.365c.024.654.052 1.356.085 2.091.404 10.122 1.206 27.015 1.206 27.015" fill="#9c8fc0"/><path d="m129.365 91.867-.145-.111-.216-.8c-1.75-6.455-3.992-14.86-4.748-18.244l-.019-.194-.016-.173-.035-.415.138-.162.163.137.032.414.016.173.015.164c.756 3.384 2.996 11.775 4.742 18.222l.217.8-.106.183z" fill="#8b71a7"/><path d="M142.922 68.878c-5.864 1.119-10.954 1.555-15.17 1.635-4.09.077-7.363-.187-9.738-.504-2.968-.395-4.529-.872-4.529-.872.05-4.358.525-8.002.988-10.558.46-2.551.91-4.016.91-4.016.05-.565.1-1.14.154-1.715.359-3.894.168-7.81-.516-11.658-1.173-6.615.277-14.42.277-14.42.935-.551 2.274-1.13 3.596-1.636a71.504 71.504 0 0 1 2.823-1.003c1.045-.348 1.76-.56 1.76-.56h8.436s1.285.345 3.218.979a80.64 80.64 0 0 1 6.16 2.288s.509 1.857 1.052 4.377c.379 1.76.396 3.586.03 5.354a58.399 58.399 0 0 1-.87 3.601 59.006 59.006 0 0 0-2.075 12.941c-.138 5.688 2.051 11.848 3.494 15.767" fill="#b4a7cd"/><path d="M127.499 66.254c-2.854.993-4.892 1.625-4.892 1.625l-4.677 1.93a109.02 109.02 0 0 1-.03-.77c.188-.031.361-.071.504-.122.78-.26 1.737-1.687 1.737-1.687l2.244-1.018c.118.159.243.307.372.445l2.576-.907c.407-.072 1.211-.43 2.116-.864.013.455.032.91.05 1.368" fill="#8b71a7"/><path d="M147.654 123.795c-.12 2.384-.306 4.826-.487 7.276-.072.96-.142 1.92-.209 2.877a158.307 158.307 0 0 0-.254 4.552c-.04.978-.065 1.946-.072 2.904a65.33 65.33 0 0 0 .049 3.235c.025.572.627 1.032.095 1.7-.644.815-4.989 1.495-6.168 0-.386-.487-.094-.611-.267-1.692-.13-.812-.301-1.884-.511-3.162l-.47-2.832c-.25-1.484-.528-3.117-.827-4.847-.162-.924-.328-1.877-.503-2.85-1.345-7.572-3.026-16.291-4.548-22.073a16.484 16.484 0 0 1-.5-2.96c-.06-.802-.113-1.423-.113-1.423h11.645s.493 1.431 1.142 3.536a45.693 45.693 0 0 1 1.998 15.76" fill="#9c8fc0"/><path d="M127.59 146.608s.953.937 1.042 2.44c.087 1.507-.406 2.57-.406 2.57l-11.648-.268c-.642-1.001-.19-2.335.924-2.745 1.524-.566 3.431-1.39 4.344-2.265z" fill="#41376f"/><path d="M128.416 130.903c-.08.977-.16 1.97-.235 2.969-.12 1.596-.232 3.214-.325 4.841-.055.943-.103 1.888-.143 2.833-.072 1.696-.116 3.391-.122 5.062l-2.96-.137-2.785-.131c-.1-1.543-.245-3.175-.42-4.86-.097-.92-.203-1.857-.318-2.804a241.717 241.717 0 0 0-1.082-7.82c-1.514-9.895-3.451-19.417-4.102-22.781-.203-1.05-.343-3.27-.343-3.27l11.242-.3s1.973 3.249 2.444 8.845c.34 4.046-.275 10.438-.851 17.553" fill="#9c8fc0"/><path d="M144.719 75.061s-7.261 1.854-13.733 1.05a18.485 18.485 0 0 1-2.727-.525 107.025 107.025 0 0 1-.413-3.91l-.014-.172c-.113-1.32-.204-2.628-.273-3.925-.02-.436-.04-.87-.058-1.3-.02-.483-.04-.938-.052-1.393a93.428 93.428 0 0 1-.062-3.125v-.246A140.305 140.305 0 0 1 128 47.812a147.825 147.825 0 0 1 .833-7.083c1.343-9.525 3.182-15.97 3.461-16.923l.033-.12s1.756.313 3.72.813a33 33 0 0 1 2.374.691c1.39.467 2.554 1.011 2.87 1.58.71 1.273 1.43 8.609 1.02 13.74-.076.925-.185 1.78-.34 2.514a8.59 8.59 0 0 1-.352 1.24c-.362 1.002-.614 2.128-.775 3.347-.11.8-.174 1.637-.206 2.503-.04.961-.035 1.954.004 2.97l.01.223c.027.73.076 1.469.141 2.216l.026.324c.097 1.074.222 2.155.37 3.227a84.963 84.963 0 0 0 .362 2.385c.477 2.874 1.071 5.593 1.616 7.838.835 3.446 1.552 5.764 1.552 5.764M121.166 24.317s-.864 6.841-1.703 15.396c-.079.82-.16 1.655-.24 2.508a446.033 446.033 0 0 0-.601 7.154 310.105 310.105 0 0 0-.359 5.363c-.046.814-.09 1.624-.129 2.427-.06 1.238-.11 2.46-.147 3.657-.024.83-.044 1.647-.059 2.45-.019 1.329-.024 2.615-.004 3.84a89.325 89.325 0 0 0 .08 2.696c.032.668.07 1.309.119 1.921.12 1.45.285 2.737.51 3.824-1.596.227-3.022.16-4.128.007-1.457-.197-2.36-.535-2.36-.535s.383-6.87 1.016-13.26c.084-.86.174-1.71.267-2.534.133-1.179.277-2.302.427-3.32.067-.45.134-.876.204-1.28.063-.372.116-.763.158-1.174.151-1.469.174-3.17.14-5.01-.013-.849-.04-1.726-.073-2.622-.056-1.573-.13-3.209-.183-4.852a97.993 97.993 0 0 1-.063-2.657c-.05-4.201.164-8.318 1.26-11.546.473-.452 1.101-.836 1.77-1.156.844-.404 1.755-.707 2.504-.917.921-.262 1.594-.38 1.594-.38" fill="#f5b653"/><path d="M37.584 122.658h34.279a8.374 8.374 0 0 0 8.02-5.958l6.468-21.474H23.095l6.469 21.474a8.373 8.373 0 0 0 8.02 5.958" fill="#859fd2"/><path d="M22.637 97.616h63.398a1.195 1.195 0 1 0 0-2.39H22.637a1.195 1.195 0 0 0 0 2.39" fill="#d0d8ec"/><path d="M45.372 138.275c0 5.296-4.293 9.588-9.592 9.588-5.3 0-9.596-4.292-9.596-9.588 0-5.296 4.296-9.588 9.596-9.588s9.592 4.292 9.592 9.588" fill="#3b2852"/><path d="M49.039 138.275c0 5.296-4.295 9.588-9.594 9.588-5.299 0-9.596-4.292-9.596-9.588 0-5.296 4.297-9.588 9.596-9.588s9.594 4.292 9.594 9.588" fill="#665978"/><path d="M44.864 138.275a5.417 5.417 0 0 1-5.419 5.415 5.418 5.418 0 0 1-5.421-5.415 5.418 5.418 0 0 1 5.421-5.416 5.417 5.417 0 0 1 5.42 5.416" fill="#3b2852"/><path d="M91.075 144.673a5.03 5.03 0 0 1-3.886 1.826 4.22 4.22 0 0 1-3.956-2.702l-8.154-20.864h13.743l3.328 17.581a5.03 5.03 0 0 1-1.075 4.159zm3.76-4.662-3.34-17.648-.2-1.048a1.367 1.367 0 0 0-1.341-1.112H55.987c-.368 0-.714.145-.972.404l-1.83 1.849-.2.2-7.83 7.913-1.804 1.818-1.188 1.201-2.976 3.006-.715.72a1.367 1.367 0 0 0-.205 1.654l.217.278c.534.53 1.4.525 1.932-.01l3.689-3.725.642-.65 2.349-2.373 9.46-9.555h15.59l8.54 21.857a6.937 6.937 0 0 0 6.503 4.44 7.756 7.756 0 0 0 5.991-2.816 7.743 7.743 0 0 0 1.654-6.403M92.766 120.53l-.336-.058a.993.993 0 0 1-.6-1.27l18.585-51.661a.995.995 0 0 1 .934-.657h10.34a.994.994 0 0 1 0 1.985h-9.64l-18.347 51.004a.992.992 0 0 1-.936.656" fill="#b0bddd"/><path d="M108.03 67.879c0 .546-.446.99-.994.99l-9.978.435-18.345 51.003c.19-.03-.193.224-.6.224l-.336-.059a.994.994 0 0 1-.599-1.272l18.584-51.66a.991.991 0 0 1 .937-.654h10.337c.548 0 .995.443.995.993" fill="#b0bddd"/><path d="M55.01 122.658h34.282a8.38 8.38 0 0 0 8.02-5.958l6.465-21.474H40.525l6.467 21.474a8.372 8.372 0 0 0 8.019 5.958" fill="#7891c6"/><path d="M40.453 97.616h63.396c.66 0 1.197-.535 1.197-1.196 0-.658-.537-1.194-1.197-1.194H40.453c-.66 0-1.197.536-1.197 1.194 0 .66.537 1.196 1.197 1.196" fill="#b0bddd"/><path d="M123.747 72.339c-2.36 0-4.328-.323-5.623-.611a58.487 58.487 0 0 1-.102-1.567c-.004-.05-.005-.1-.008-.152l.185.025.057.006.115.015c1.59.2 3.553.374 5.868.442.024.416.052.84.087 1.273l-.002-.002-.138.162.035.404c-.16.003-.318.005-.474.005" fill="#81719f"/><path d="M137.047 77.942c-5.26 0-10.082-.749-10.082-.749l-.178-5.035a25.02 25.02 0 0 1-2.266.17l-.002-.009-.032-.414-.161-.135a63.676 63.676 0 0 1-.087-1.273c.666.019 1.361.029 2.085.029h.024c.457 0 .925-.003 1.404-.013.025.33.052.66.08.991l.014.172c.114 1.297.25 2.601.413 3.91.747.207 1.522.36 2.314.471 1.28.182 2.6.258 3.895.258 3.546 0 6.899-.553 8.754-.923.024.654.052 1.356.085 2.091-1.97.338-4.15.459-6.26.459" fill="#81719f"/><path d="m124.221 72.334-.035-.404.138-.162.002.002.16.135.033.414.002.009-.152.003-.148.003" fill="#796292"/><path d="M126.344 70.526h.004-.004zm-.02 0c-.724 0-1.418-.01-2.085-.03a61.48 61.48 0 0 1-5.868-.44c2.049.259 4.716.47 7.953.47zm-8.068-.486-.057-.006.057.006" fill="#8d7ca4"/><path d="M130.572 76.057zm-2.313-.471a107.025 107.025 0 0 1-.413-3.91l-.014-.172a109.858 109.858 0 0 0 .427 4.082M118.022 70.16c-.004-.05-.007-.1-.008-.15.003.05.004.1.008.15" fill="#ac8467"/><path d="M27.187 95.226s4.889-4.255 15.783-4.255c10.893 0 12.694 2.737 12.694 2.737s9.905-3.423 20.758-3.423c10.854 0 18.87 4.941 18.87 4.941z" fill="#3d405c"/><path d="M103.31 65.287s-3.067-.208-3.453 1.803l-.02.262a.797.797 0 0 0 .657.854l1.342.237c.339.058.66-.17.719-.51a.37.37 0 0 0-.289-.42l-1.06-.228s2.196-.384 2.103-1.998" fill="#f7c0ad"/><path d="M101.511 69.424h-.221a.423.423 0 0 1-.42-.473l.112-.916a.421.421 0 0 1 .838 0l.11.916a.423.423 0 0 1-.419.473" fill="#f7c0ad"/><path d="M102.643 69.422h-.243a.463.463 0 0 1-.461-.521l.12-1.011a.466.466 0 0 1 .925 0l.122 1.01a.465.465 0 0 1-.463.522" fill="#f7c0ad"/><path d="M103.648 69.437h-.22a.424.424 0 0 1-.42-.474l.11-.915a.424.424 0 0 1 .84 0l.11.915a.423.423 0 0 1-.42.474" fill="#f7c0ad"/><path d="M104.715 69.437h-.222a.424.424 0 0 1-.419-.474l.111-.915a.421.421 0 0 1 .838 0l.112.915a.426.426 0 0 1-.42.474" fill="#f7c0ad"/><path d="M127.01 26.722c-6.024.144-5.294-2.59-5.294-2.59 1.046-.349 1.76-.562 1.76-.562h8.437s1.122 3.006-4.903 3.152" fill="#f39f97"/><path d="M117.596 15.636c0 .21.152.845.152.845s.43 3.486 1.446 6.104c.133.347.383.633.754.633h1.78c.536 0 1.068-.082 1.575-.246 1.992-.638 6.322-2.082 7.297-3.834.047-.17.427-2.545.427-2.545.843-2.91 2.58-2.94 3.185-4.703.295-.858.18-3.341.18-3.341s-.876-6.218-7.77-6.218c-2.97 0-5.185 2.016-6.453 3.573a7.862 7.862 0 0 0-1.55 3.145 63.549 63.549 0 0 0-.414 1.83 2.354 2.354 0 0 0-.043.562l.018.255.027.266c.046.417.103.735.103.735l-.08.27-.101.354c-.23.806-.533 1.996-.533 2.315" fill="#f7c0ad"/><path d="M118.688 7.906s6.55 1.068 14.835 6.752c2.044-1.706 4.638-10.575-3.213-13.172-6.18-2.044-11.522 2.79-11.622 6.42" fill="#f5b653"/><path d="M130.09 14.112c-.465 1.309-.713 2.355.037 2.675.564.243 1.907-.188 3.027-1.687.541-1.28-.064-2.592-.83-2.864-.769-.274-1.77.567-2.234 1.876" fill="#f7c0ad"/><path d="M130.228 12.192c-.235.653-3.464-.383-7.355-1.789-3.89-1.404-5.828-1.853-5.592-2.507.236-.653 2.557-1.264 6.447.14 3.89 1.406 6.738 3.502 6.5 4.156" fill="#f7c578"/><path d="M122.557 7.658s.463-5.586 6.321-6.53c1.195-.181 2.126.615 2.126.615s-6.542 1.503-7.275 6.293c-1.115.268-1.172-.378-1.172-.378" fill="#f7c578"/><path d="m114.903 67.23.381 1.333c.098.334.341.604.663.73.41.164.81.203 1.197.128l.36-.069.31.077a1.2 1.2 0 0 0 .824-.091c.5-.095.896-.484.992-.987l.116-.594-3.28-.942z" fill="#f39f97"/><path d="M118.72 64.258s-2.007.68-3.142 1.446c-.39.262-.64.682-.703 1.146a.936.936 0 0 0 .767 1.046l2.335.405a2.042 2.042 0 0 0 2.164-1.071z" fill="#f7c0ad"/><path d="M134.275 34.915c-1.664 5.644-3.201 14.543-1.725 26.075.099.78.214 1.573.342 2.378-.815.124-1.606.227-2.372.31a81.17 81.17 0 0 1-.343-2.382c-1.535-12.008.09-21.29 1.845-27.183 1.378-4.64 3.014-7.87 4.024-9.614a33 33 0 0 1 2.375.691c-.867 1.423-2.671 4.732-4.146 9.725M119.572 24.697c-.52 4.694-2.162 20.425-2.618 35.866-.023.825-.044 1.648-.062 2.47a23.717 23.717 0 0 1-2.375-.721c.02-.846.044-1.697.07-2.548.452-14.179 1.865-28.436 2.481-34.15.844-.404 1.755-.707 2.504-.917" fill="#fedbbe"/><path d="M114.217 53.457c.947.416 2.287.898 4.046 1.281-.046.814-.09 1.624-.129 2.427-1.769-.356-3.187-.813-4.28-1.253.068-.45.135-.877.205-1.282.063-.371.116-.762.158-1.173M140.793 55.523c-5.192 1.418-9.633 2.074-13.374 2.254.018-.814.044-1.619.075-2.414 3.583-.188 7.956-.832 13.148-2.28l.01.224c.027.73.076 1.47.141 2.216M116.954 60.563c.327.09.671.176 1.033.26-.024.829-.044 1.646-.059 2.45-.36-.077-.705-.158-1.036-.24a23.717 23.717 0 0 1-2.375-.721c-.509-.185-.96-.368-1.356-.548.084-.859.174-1.71.267-2.533.312.16.697.341 1.159.533.639.262 1.426.541 2.367.799M141.551 61.459c-3.154.893-6.038 1.51-8.66 1.91-.814.123-1.605.226-2.37.309-1.081.119-2.116.2-3.102.246-.016-.727-.028-1.448-.032-2.163v-.246a48.33 48.33 0 0 0 2.79-.219 61.273 61.273 0 0 0 2.373-.306c2.583-.392 5.46-1.004 8.639-1.916a81.368 81.368 0 0 0 .362 2.385" fill="#fedbbe"/><path d="M140.762 56.023c-.244.753-.41 1.228-.448 1.34-.01.027-2.889-1.25-6.275-3.29 0 0-.863-.749.113-1.74-.15-5.467.785-16.734 2.233-20.738 1.731-4.786 4.708-4.872 4.708-4.872 7.47 3.44 1.453 23.8-.331 29.3" fill="#b4a7cd"/><path d="m139.983 58-.202.238a1.466 1.466 0 0 1-.43.313c-3.994 1.798-10.347 4.67-14.644 6.614l-.4.18-1.92.867-2.246 1.018-.545-1.138-.876-1.834a40.05 40.05 0 0 0 2.09-1.054c.607-.324 1.191-.657 1.754-.997 5.304-3.17 8.423-7.077 11.35-8.272 1.832-.75 3.944.073 5.061.556.65.28 1.106.813 1.312 1.419.237.687.16 1.47-.304 2.09" fill="#f7c0ad"/><path d="M38.22 92.55c0 .114-.428.205-.952.205-.529 0-.952-.091-.952-.206 0-.114.423-.207.952-.207.524 0 .952.093.952.207M47.743 93.128c0 .321-.388.58-.865.58-.48 0-.866-.259-.866-.58 0-.32.386-.579.866-.579.477 0 .865.26.865.579M68.653 93.814c0 .238-.34.432-.758.432-.42 0-.757-.194-.757-.432 0-.24.338-.433.757-.433s.758.193.758.433M80.773 92.334c0 .232-.318.42-.712.42-.397 0-.717-.188-.717-.42 0-.236.32-.424.717-.424.394 0 .712.188.712.424M87.05 93.286c0 .29-.456.528-1.016.528-.563 0-1.017-.238-1.017-.528 0-.293.454-.531 1.017-.531.56 0 1.017.238 1.017.531M70.514 92.228c0 .18-.203.321-.454.321s-.454-.141-.454-.32c0-.176.203-.319.454-.319.25 0 .454.143.454.318M60.168 93.814c0 .238-.359.432-.802.432-.442 0-.8-.194-.8-.432 0-.24.358-.433.8-.433.443 0 .802.193.802.433M52.505 94.03c0 .122-.252.216-.563.216-.311 0-.562-.094-.562-.215 0-.119.251-.217.562-.217.312 0 .563.098.563.217" fill="#22253d"/><path d="M128.416 130.903c-.08.977-.16 1.97-.235 2.969-1.016.285-2.107.393-3.178.393-1.688 0-3.328-.268-4.55-.539a330.35 330.35 0 0 0-.427-2.87c2.099.572 6.115 1.273 8.39.047M127.856 138.713c-.055.943-.103 1.888-.143 2.833-.879.198-1.8.274-2.71.274-1.271 0-2.519-.151-3.578-.34-.096-.92-.202-1.857-.317-2.804 2 .432 4.807.758 6.748.037M147.167 131.071c-.072.96-.142 1.92-.209 2.877-1.11.228-2.286.317-3.444.317-1.813 0-3.582-.217-4.98-.459-.163-.924-.33-1.877-.504-2.85 2.458.516 6.538 1.044 9.137.115M146.704 138.501a87.5 87.5 0 0 0-.072 2.903c-1.038.302-2.161.416-3.262.416-1.258 0-2.489-.148-3.54-.335l-.47-2.832c2.176.48 5.375.852 7.344-.152" fill="#d0c6df"/></svg>